<svg width="50" height="50" viewBox="0 0 50 50" fill="none" xmlns="http://www.w3.org/2000/svg">
<path d="M38.1007 22.7247C30.0969 20.5798 21.6676 20.5798 13.6638 22.7247V26.376H38.1007V22.7247Z" fill="#CD6078"/>
<path d="M38.1006 26.7526H13.6474C13.451 26.7526 13.2709 26.5889 13.2709 26.376V22.7247C13.2709 22.561 13.3855 22.4136 13.5492 22.3645C21.6021 20.2032 30.1296 20.2032 38.1824 22.3645C38.3461 22.4136 38.4607 22.561 38.4607 22.7247V26.376C38.4607 26.5889 38.297 26.7526 38.1006 26.7526ZM14.0238 26.0158H37.7242V23.0195C29.9659 20.9891 21.7821 20.9891 14.0238 23.0195V26.0158Z" fill="#58437B"/>
<path d="M19.33 30.2304L18.1505 29.0509L14.4993 32.7021L15.6789 33.8816L19.33 30.2304Z" fill="white"/>
<path d="M15.6788 34.3713L13.9985 32.691L18.1506 28.5389L19.8309 30.2192L15.6788 34.3713ZM15.0113 32.702L15.6901 33.3808L18.8404 30.2305L18.1616 29.5517L15.0113 32.702Z" fill="#58437B"/>
<path d="M21.8004 32.7008C19.0961 31.4659 16.9263 29.296 15.6913 26.5917L25.6542 16.6289L31.7633 22.7379L21.8004 32.7008Z" fill="#7BD3F7"/>
<path d="M17.9388 30.4421C16.8706 29.3739 16.0027 28.1275 15.3686 26.7364L15.2573 26.5139L25.6431 16.128L32.2529 22.7379L21.8671 33.1237L21.6445 33.0124C20.2535 32.3783 19.0071 31.5104 17.9388 30.4421ZM16.1143 26.6584C17.2936 29.1067 19.2743 31.0874 21.7226 32.2667L31.2624 22.7269L25.6541 17.1186L16.1143 26.6584Z" fill="#58437B"/>
<path d="M17.2814 34.972L13.4089 31.0996L12.908 31.6005L16.7804 35.473L17.2814 34.972Z" fill="#58437B"/>
<path d="M30.6957 17.6853C30.3063 17.2958 29.8277 17.0176 29.2935 16.8842L26.1774 16.0834L25.6542 16.6066L31.7633 22.7157L32.2865 22.1925L31.4857 19.0763C31.3522 18.5644 31.0852 18.0747 30.6957 17.6853Z" fill="#CCDDE7"/>
<path d="M31.7632 23.2277L25.1534 16.6178L26.0773 15.6939L29.3938 16.5392C29.9836 16.6837 30.5178 16.9953 30.9518 17.4293C31.3857 17.8632 31.6973 18.3974 31.8418 18.9872L32.6871 22.3037L31.7632 23.2277ZM26.155 16.6177L31.7634 22.226L31.8969 22.0924L31.1518 19.1654C31.0406 18.698 30.7847 18.264 30.4508 17.9302C30.1059 17.5852 29.683 17.3404 29.2156 17.2292L26.2886 16.4841L26.155 16.6177Z" fill="#58437B"/>
<path d="M33.8124 15.0581L33.3117 14.5574L30.4397 17.4293L30.9405 17.9301L33.8124 15.0581Z" fill="#58437B"/>
<path d="M30.2605 24.2407L28.3132 22.2934L27.8123 22.7943L29.7596 24.7416L30.2605 24.2407Z" fill="#58437B"/>
<path d="M28.101 26.4002L26.1536 24.4529L25.6527 24.9538L27.6 26.9011L28.101 26.4002Z" fill="#58437B"/>
<path d="M25.9414 28.5598L23.994 26.6124L23.4931 27.1134L25.4404 29.0607L25.9414 28.5598Z" fill="#58437B"/>
<path d="M23.7818 30.7193L21.8345 28.772L21.3335 29.2729L23.2809 31.2202L23.7818 30.7193Z" fill="#58437B"/>
<path d="M38.1006 28.4882C38.1006 29.7162 32.6338 30.715 25.874 30.715C19.1306 30.715 13.6474 29.7162 13.6474 28.4882V22.7411C13.6474 23.9691 19.1142 24.9679 25.874 24.9679C32.6175 24.9679 38.1006 23.9691 38.1006 22.7411V28.4882Z" fill="#F16477"/>
<path d="M25.874 31.0752C22.5841 31.0752 19.4906 30.846 17.1664 30.4203C16.0207 30.2074 15.1041 29.9618 14.4658 29.6835C13.6637 29.3396 13.2873 28.9467 13.2873 28.4718V22.7247H14.0238C14.0238 22.8885 14.6294 23.4452 17.2974 23.9364C19.5888 24.3621 22.6332 24.5913 25.874 24.5913C29.1148 24.5913 32.1592 24.3621 34.4506 23.9364C37.1185 23.4452 37.7241 22.8885 37.7241 22.7247H38.4607V28.4718C38.4607 28.9467 38.0679 29.3396 37.2822 29.6835C36.6439 29.9618 35.7273 30.2074 34.5816 30.4203C32.2574 30.846 29.1639 31.0752 25.874 31.0752ZM14.0238 23.7235V28.4882C14.0238 28.6519 14.6294 29.2086 17.2974 29.6998C19.5888 30.1256 22.6332 30.3548 25.874 30.3548C29.1148 30.3548 32.1592 30.1256 34.4506 29.6998C37.1185 29.2086 37.7241 28.6519 37.7241 28.4882V23.7235C37.5932 23.8054 37.4459 23.8709 37.2822 23.9527C36.6439 24.2311 35.7273 24.4767 34.5816 24.6896C32.2574 25.1153 29.1639 25.3445 25.874 25.3445C22.5841 25.3445 19.4906 25.1153 17.1664 24.6896C16.0207 24.4767 15.1041 24.2311 14.4658 23.9527C14.3021 23.8709 14.1548 23.789 14.0238 23.7235Z" fill="#58437B"/>
<path d="M25.874 31.8611L28.7711 33.5476V36.9042L25.874 38.5743L22.9769 36.9042V33.5476L25.874 31.8611Z" fill="#FECD88"/>
<path d="M25.874 39L22.6005 37.117V33.3348L25.874 31.4518L29.1475 33.3348V37.117L25.874 39ZM23.337 36.6913L25.874 38.1486L28.411 36.6913V33.7605L25.874 32.3032L23.337 33.7605V36.6913Z" fill="#58437B"/>
<path d="M37.6914 23.2978C36.3165 24.2475 31.5372 24.9515 25.874 24.9515C24.5973 24.9515 23.3697 24.9188 22.224 24.8533C20.5709 24.7551 19.196 26.0649 19.196 27.7187C19.196 29.225 20.3745 30.4858 21.8803 30.584C23.1406 30.6659 24.4827 30.6986 25.874 30.6986C32.6174 30.6986 38.1006 29.6999 38.1006 28.4718V23.2978H37.6914Z" fill="#F37F92"/>
<path d="M25.874 31.0752C24.4991 31.0752 23.1406 31.0261 21.8476 30.9442C20.1454 30.8296 18.8196 29.4215 18.8196 27.7187C18.8196 26.8181 19.1797 25.9831 19.8344 25.3609C20.4891 24.7387 21.3402 24.4276 22.2404 24.4767C23.4025 24.5422 24.6301 24.5749 25.874 24.5749C31.9791 24.5749 36.3329 23.7726 37.4787 22.9867L37.5769 22.9212H38.4607V28.4718C38.4607 28.9467 38.0679 29.3396 37.2822 29.6835C36.6439 29.9618 35.7273 30.2074 34.5816 30.4203C32.2574 30.846 29.1639 31.0752 25.874 31.0752ZM22.0604 25.2299C21.422 25.2299 20.8164 25.4755 20.3418 25.9176C19.8344 26.3924 19.5561 27.0473 19.5561 27.735C19.5561 29.0449 20.5873 30.1419 21.8967 30.2238C23.1734 30.3057 24.5155 30.3384 25.874 30.3384C29.1148 30.3384 32.1592 30.1092 34.4506 29.6835C37.1186 29.1923 37.7242 28.6356 37.7242 28.4718V23.7072C36.0547 24.6732 31.3735 25.3281 25.874 25.3281C24.6301 25.3281 23.3861 25.2954 22.2077 25.2299C22.1586 25.2299 22.1095 25.2299 22.0604 25.2299Z" fill="#58437B"/>
<path d="M22.7151 28.6192C23.1761 28.6192 23.5498 28.2453 23.5498 27.7842C23.5498 27.323 23.1761 26.9491 22.7151 26.9491C22.254 26.9491 21.8803 27.323 21.8803 27.7842C21.8803 28.2453 22.254 28.6192 22.7151 28.6192Z" fill="white"/>
<path d="M29.1311 28.6192C29.5922 28.6192 29.9659 28.2453 29.9659 27.7842C29.9659 27.323 29.5922 26.9491 29.1311 26.9491C28.6701 26.9491 28.2964 27.323 28.2964 27.7842C28.2964 28.2453 28.6701 28.6192 29.1311 28.6192Z" fill="white"/>
<path d="M35.5473 27.6859C36.0083 27.6859 36.382 27.312 36.382 26.8509C36.382 26.3897 36.0083 26.0158 35.5473 26.0158C35.0862 26.0158 34.7125 26.3897 34.7125 26.8509C34.7125 27.312 35.0862 27.6859 35.5473 27.6859Z" fill="white"/>
<path d="M22.7151 28.9794C22.0604 28.9794 21.5203 28.4391 21.5203 27.7842C21.5203 27.1292 22.0604 26.5889 22.7151 26.5889C23.3698 26.5889 23.9099 27.1292 23.9099 27.7842C23.9263 28.4391 23.3862 28.9794 22.7151 28.9794ZM22.7151 27.3257C22.4696 27.3257 22.2568 27.5385 22.2568 27.7842C22.2568 28.0298 22.4696 28.2426 22.7151 28.2426C22.9606 28.2426 23.1734 28.0298 23.1734 27.7842C23.1734 27.5222 22.977 27.3257 22.7151 27.3257Z" fill="#58437B"/>
<path d="M29.1312 28.9794C28.4765 28.9794 27.9364 28.4391 27.9364 27.7842C27.9364 27.1292 28.4765 26.5889 29.1312 26.5889C29.7859 26.5889 30.3261 27.1292 30.3261 27.7842C30.3261 28.4391 29.8023 28.9794 29.1312 28.9794ZM29.1312 27.3257C28.8857 27.3257 28.6729 27.5385 28.6729 27.7842C28.6729 28.0298 28.8857 28.2426 29.1312 28.2426C29.3768 28.2426 29.5895 28.0298 29.5895 27.7842C29.5895 27.5222 29.3931 27.3257 29.1312 27.3257Z" fill="#58437B"/>
<path d="M35.5473 28.0461C34.8926 28.0461 34.3524 27.5058 34.3524 26.8508C34.3524 26.1959 34.8926 25.6556 35.5473 25.6556C36.202 25.6556 36.7421 26.1959 36.7421 26.8508C36.7421 27.5222 36.202 28.0461 35.5473 28.0461ZM35.5473 26.3924C35.3018 26.3924 35.089 26.6052 35.089 26.8508C35.089 27.0964 35.3018 27.3093 35.5473 27.3093C35.7928 27.3093 36.0056 27.0964 36.0056 26.8508C36.0056 26.6052 35.7928 26.3924 35.5473 26.3924Z" fill="#58437B"/>
<path d="M26.2341 30.715H25.4976V34.0879H26.2341V30.715Z" fill="#58437B"/>
</svg>
