<svg width="50" height="50" viewBox="0 0 50 50" fill="none" xmlns="http://www.w3.org/2000/svg">
<path d="M33 17.4657H17.5226V35.8039H33V17.4657Z" fill="#7BD3F7"/>
<path d="M32.3527 36.0835H18.3465C17.7433 36.0835 17.2431 35.5831 17.2431 34.9797V17.4657C17.2431 17.3038 17.3755 17.1861 17.5226 17.1861H33C33.1619 17.1861 33.2796 17.3185 33.2796 17.4657V35.171C33.2796 35.6714 32.8676 36.0835 32.3527 36.0835ZM17.8022 35.5243H32.7205V17.7453H17.8022V35.5243Z" fill="#58437B"/>
<path d="M25.129 31.4769C28.4767 31.4769 31.1905 28.7621 31.1905 25.4132C31.1905 22.0644 28.4767 19.3495 25.129 19.3495C21.7813 19.3495 19.0675 22.0644 19.0675 25.4132C19.0675 28.7621 21.7813 31.4769 25.129 31.4769Z" fill="#E8F1F5"/>
<path d="M25.129 31.7566C21.6274 31.7566 18.788 28.9013 18.788 25.4133C18.788 21.9252 21.6422 19.0699 25.129 19.0699C28.6158 19.0699 31.47 21.9252 31.47 25.4133C31.47 28.9013 28.6158 31.7566 25.129 31.7566ZM25.129 19.6292C21.9364 19.6292 19.347 22.2195 19.347 25.4133C19.347 28.607 21.9364 31.1973 25.129 31.1973C28.3216 31.1973 30.911 28.607 30.911 25.4133C30.911 22.2195 28.3069 19.6292 25.129 19.6292Z" fill="#58437B"/>
<path d="M33 33.92H17.5226V35.8039H33V33.92Z" fill="#F37F92"/>
<path d="M32.4116 36.0835H17.9346C17.5521 36.0835 17.2431 35.7745 17.2431 35.3918V33.92C17.2431 33.7582 17.3755 33.6404 17.5226 33.6404H33C33.1619 33.6404 33.2796 33.7729 33.2796 33.92V35.2152C33.2796 35.7009 32.8823 36.0835 32.4116 36.0835ZM17.8022 35.5243H32.7205V34.1997H17.8022V35.5243Z" fill="#58437B"/>
<path d="M27.6153 22.9407C27.6448 22.6757 27.5565 22.3961 27.3505 22.2048C26.9974 21.8516 26.4089 21.8516 26.0558 22.2048C25.7027 22.558 25.7027 23.1467 26.0558 23.4999C26.0852 23.5294 26.1147 23.5588 26.1441 23.5882L23.5106 26.2227C23.4811 26.1933 23.4517 26.1638 23.4223 26.1344C23.0692 25.7812 22.4807 25.7812 22.1276 26.1344C21.7745 26.4876 21.7745 27.0763 22.1276 27.4296C22.3336 27.6356 22.5984 27.7239 22.8632 27.6945C22.8338 27.9594 22.9221 28.239 23.1281 28.4304C23.4812 28.7836 24.0696 28.7836 24.4227 28.4304C24.7758 28.0771 24.7758 27.4884 24.4227 27.1352C24.3933 27.1058 24.3639 27.0763 24.3345 27.0469L26.968 24.4124C26.9974 24.4419 27.0268 24.4713 27.0563 24.5007C27.4094 24.854 27.9979 24.854 28.3509 24.5007C28.704 24.1475 28.704 23.5588 28.3509 23.2056C28.1597 22.9995 27.8802 22.9112 27.6153 22.9407Z" fill="#FECD88"/>
<path d="M29.4985 14.5663C29.5279 14.4486 29.5132 14.3161 29.4397 14.2131C29.3072 14.0218 29.0424 13.9776 28.8512 14.1101C28.6599 14.2425 28.6158 14.5075 28.7482 14.6988C28.7629 14.7135 28.7776 14.7282 28.7923 14.7429L27.3946 15.7437C27.3799 15.729 27.3799 15.7143 27.3652 15.6996C27.2328 15.5083 26.968 15.4641 26.7767 15.5966C26.5854 15.729 26.5413 15.9939 26.6737 16.1853C26.7473 16.2883 26.865 16.3472 26.9974 16.3619C26.968 16.4796 26.9827 16.6121 27.0562 16.7151C27.1886 16.9064 27.4535 16.9506 27.6447 16.8181C27.836 16.6857 27.8801 16.4207 27.7477 16.2294C27.733 16.2147 27.7183 16.2 27.7036 16.1853L29.1013 15.1845C29.116 15.1992 29.116 15.2139 29.1307 15.2286C29.2631 15.4199 29.5279 15.4641 29.7192 15.3316C29.9104 15.1992 29.9546 14.9343 29.8222 14.7429C29.7339 14.6399 29.6162 14.581 29.4985 14.5663Z" fill="#FECD88"/>
<path d="M27.5565 13.9776C27.6153 13.8746 27.63 13.7421 27.5859 13.6097C27.4976 13.3889 27.2622 13.2859 27.0416 13.3595C26.8209 13.4478 26.7179 13.6833 26.7915 13.904C26.7915 13.9188 26.8062 13.9335 26.8209 13.9629L25.2172 14.5663C25.2172 14.5516 25.2025 14.5222 25.2025 14.5075C25.1143 14.2867 24.8789 14.1837 24.6582 14.2573C24.4375 14.3456 24.3345 14.581 24.4081 14.8018C24.4522 14.9196 24.5552 15.0079 24.6729 15.052C24.614 15.155 24.5993 15.2875 24.6435 15.42C24.7317 15.6407 24.9671 15.7437 25.1878 15.6702C25.4085 15.5966 25.5115 15.3464 25.4379 15.1256C25.4379 15.1109 25.4232 15.0962 25.4085 15.0667L27.0121 14.4633C27.0121 14.478 27.0268 14.5075 27.0268 14.5222C27.1151 14.7429 27.3505 14.846 27.5712 14.7724C27.7919 14.6841 27.8949 14.4486 27.8213 14.2278C27.7625 14.0954 27.6595 14.0071 27.5565 13.9776Z" fill="#FECD88"/>
<path d="M27.3946 17.0683C27.2034 17.0683 27.0268 16.98 26.9091 16.8181C26.8356 16.7151 26.8062 16.6121 26.7914 16.4943C26.6885 16.4502 26.5855 16.3766 26.5266 16.2883C26.4383 16.1558 26.3942 15.9939 26.4236 15.8468C26.4531 15.6849 26.5413 15.5524 26.659 15.4641C26.8944 15.3022 27.2181 15.3169 27.4094 15.5083L28.5275 14.7135C28.4098 14.4633 28.4834 14.1542 28.7188 13.9776C28.9836 13.7863 29.3661 13.8452 29.5574 14.1101C29.6309 14.2131 29.6604 14.3161 29.6751 14.4339C29.7781 14.478 29.8811 14.5516 29.9399 14.6399C30.0282 14.7724 30.0723 14.9343 30.0429 15.0814C30.0135 15.2433 29.9252 15.3758 29.8075 15.4641C29.6751 15.5524 29.5132 15.5966 29.3661 15.5671C29.2484 15.5524 29.1454 15.4935 29.0572 15.4199L27.939 16.2147C28.0567 16.4649 27.9832 16.774 27.7478 16.9506C27.6448 17.0389 27.5271 17.0683 27.3946 17.0683ZM27.0121 15.6996C26.968 15.6996 26.9091 15.7143 26.865 15.7437C26.8062 15.7879 26.7767 15.832 26.762 15.9056C26.7473 15.9645 26.762 16.0381 26.8062 16.0822C26.8503 16.1411 26.9091 16.1853 26.9827 16.1853C27.0416 16.1853 27.0857 16.2147 27.1151 16.2589C27.1445 16.303 27.1592 16.3619 27.1445 16.406C27.1298 16.4796 27.1445 16.5532 27.1887 16.6121C27.2622 16.7151 27.4241 16.7445 27.5271 16.6709C27.6301 16.5974 27.6595 16.4355 27.5859 16.3324C27.5859 16.3177 27.5712 16.3177 27.5712 16.303C27.5418 16.2589 27.5124 16.2147 27.5271 16.1705C27.5271 16.1264 27.5565 16.0675 27.6006 16.0381L28.9983 15.0373C29.0424 15.0079 29.0866 14.9931 29.1454 15.0079C29.1896 15.0226 29.2337 15.052 29.2631 15.0962C29.2631 15.1109 29.2778 15.1109 29.2778 15.1256C29.322 15.1845 29.3661 15.2139 29.4397 15.2286C29.4985 15.2433 29.5721 15.2286 29.6162 15.1845C29.6751 15.1403 29.7045 15.0962 29.7192 15.0226C29.7339 14.9637 29.7192 14.8901 29.6751 14.846C29.6309 14.7871 29.5721 14.7429 29.4985 14.7429C29.4397 14.7429 29.3955 14.7135 29.3661 14.6693C29.3367 14.6252 29.322 14.5663 29.3367 14.5222C29.3514 14.4486 29.3367 14.375 29.2926 14.3161C29.219 14.2131 29.0572 14.1837 28.9542 14.2573C28.8512 14.3308 28.8218 14.4927 28.8953 14.5958C28.8953 14.6105 28.91 14.6105 28.91 14.6252C28.9395 14.6693 28.9689 14.7135 28.9542 14.7577C28.9542 14.8018 28.9247 14.8607 28.8806 14.8901L27.4829 15.8909C27.4388 15.9203 27.3946 15.9351 27.3358 15.9203C27.2917 15.9056 27.2475 15.8762 27.2181 15.832C27.2181 15.8173 27.2034 15.8173 27.2034 15.8026C27.174 15.729 27.1004 15.6996 27.0121 15.6996Z" fill="#58437B"/>
<path d="M25.026 15.8762C24.7906 15.8762 24.5552 15.729 24.4669 15.4935C24.4228 15.3905 24.4228 15.2728 24.4375 15.155C24.3492 15.0814 24.2756 14.9931 24.2315 14.8901C24.1138 14.581 24.2756 14.2278 24.5846 14.1248C24.8494 14.0218 25.1584 14.1248 25.3055 14.3603L26.5855 13.8746C26.5413 13.595 26.7032 13.3153 26.968 13.2123C27.1151 13.1534 27.277 13.1681 27.4241 13.227C27.5712 13.2859 27.6742 13.4183 27.733 13.5655C27.7772 13.6685 27.7772 13.7863 27.7625 13.904C27.8507 13.9776 27.9243 14.0659 27.9684 14.1689C28.0273 14.3161 28.0126 14.478 27.9537 14.6252C27.8949 14.7724 27.7625 14.8754 27.6153 14.9343C27.3505 15.0373 27.0416 14.9343 26.8944 14.6988L25.6145 15.1845C25.6586 15.4641 25.4968 15.7437 25.2319 15.8468C25.1731 15.8615 25.0995 15.8762 25.026 15.8762ZM24.8053 14.4191C24.7759 14.4191 24.7464 14.4191 24.717 14.4339C24.5846 14.478 24.5257 14.6252 24.5699 14.7429C24.5993 14.8165 24.6434 14.8607 24.717 14.8901C24.7611 14.9048 24.8053 14.949 24.82 14.9931C24.8347 15.0373 24.8347 15.0962 24.8053 15.1403C24.7611 15.1992 24.7611 15.2728 24.7906 15.3464C24.8347 15.4788 24.9818 15.5377 25.0995 15.4935C25.2319 15.4494 25.2908 15.3022 25.2467 15.1845C25.2467 15.1697 25.2319 15.1697 25.2319 15.155C25.2025 15.1109 25.2025 15.052 25.2172 15.0078C25.2319 14.9637 25.2761 14.9195 25.3202 14.9048L26.9239 14.3014C26.968 14.2867 27.0269 14.2867 27.071 14.3161C27.1151 14.3456 27.1446 14.3897 27.1593 14.4339C27.1593 14.4486 27.1593 14.4633 27.174 14.4633C27.2181 14.5958 27.3652 14.6546 27.4829 14.6105C27.5418 14.581 27.5859 14.5369 27.6153 14.478C27.6448 14.4191 27.6448 14.3456 27.6153 14.2867C27.5859 14.2131 27.5418 14.1689 27.4682 14.1395C27.4241 14.1248 27.3799 14.0806 27.3652 14.0365C27.3505 13.9923 27.3505 13.9335 27.38 13.8893C27.4241 13.8304 27.4241 13.7569 27.3947 13.6833C27.3652 13.6244 27.3211 13.5802 27.2622 13.5508C27.2034 13.5214 27.1445 13.5214 27.071 13.5508C26.9386 13.595 26.8797 13.7421 26.9239 13.8599C26.9239 13.8746 26.9386 13.8746 26.9386 13.8893C26.968 13.9335 26.968 13.9923 26.9533 14.0365C26.9386 14.0806 26.8944 14.1248 26.8503 14.1395L25.2467 14.7429C25.2025 14.7577 25.1437 14.7577 25.0995 14.7282C25.0554 14.6988 25.026 14.6546 25.0113 14.6105C25.0113 14.5958 25.0113 14.581 24.9965 14.581C24.9965 14.478 24.8936 14.4191 24.8053 14.4191Z" fill="#58437B"/>
<path d="M23.8048 28.9602C23.4959 28.9602 23.1869 28.8425 22.9662 28.607C22.7897 28.4304 22.672 28.1949 22.6278 27.9447C22.3777 27.9005 22.1423 27.7975 21.9658 27.6062C21.495 27.1352 21.495 26.3846 21.9658 25.9136C22.3924 25.4868 23.0692 25.4574 23.54 25.8106L25.7763 23.5735C25.4085 23.1026 25.4526 22.4256 25.8793 21.9987C26.1 21.778 26.4089 21.6455 26.7179 21.6455C27.0415 21.6455 27.3358 21.7633 27.5565 21.9987C27.733 22.1754 27.8507 22.4108 27.8949 22.661C28.145 22.7052 28.3804 22.8082 28.5569 22.9995C28.7776 23.2203 28.91 23.5294 28.91 23.8385C28.91 24.1622 28.7923 24.4566 28.5569 24.6774C28.3362 24.8981 28.0273 25.0306 27.7183 25.0306C27.4535 25.0306 27.2034 24.9423 26.9827 24.7804L24.7464 27.0322C25.1142 27.5032 25.0701 28.1802 24.6434 28.607C24.408 28.8425 24.1138 28.9602 23.8048 28.9602ZM22.8927 27.3854C22.9662 27.3854 23.0398 27.4148 23.0839 27.4737C23.1428 27.5326 23.1722 27.6209 23.1575 27.6945C23.1428 27.8858 23.2016 28.0771 23.334 28.2096C23.5841 28.4598 23.9814 28.4598 24.2315 28.2096C24.4816 27.9594 24.4816 27.562 24.2315 27.3118C24.2168 27.2971 24.1873 27.2677 24.1579 27.253C24.0991 27.2088 24.0549 27.1352 24.0402 27.0469C24.0402 26.9733 24.0696 26.885 24.1285 26.8261L26.762 24.1917C26.8209 24.1328 26.8944 24.1034 26.9827 24.1034C27.0563 24.1034 27.1445 24.1475 27.1887 24.2064C27.2034 24.2358 27.2328 24.2505 27.2475 24.28C27.3652 24.3977 27.527 24.4713 27.7036 24.4713C27.8801 24.4713 28.0273 24.4124 28.145 24.28C28.2627 24.1622 28.3362 24.0003 28.3362 23.8237C28.3362 23.6471 28.2774 23.4999 28.145 23.3822C28.0126 23.2497 27.8213 23.1762 27.63 23.2056C27.5418 23.2203 27.4682 23.1909 27.4093 23.132C27.3505 23.0731 27.3211 22.9848 27.3358 22.9112C27.3505 22.7199 27.2917 22.5286 27.1592 22.3961C27.0415 22.2784 26.8797 22.2048 26.7032 22.2048C26.5266 22.2048 26.3795 22.2637 26.2471 22.3961C25.997 22.6463 25.997 23.0437 26.2471 23.2939C26.2618 23.3086 26.2912 23.3381 26.3206 23.3528C26.3795 23.3969 26.4236 23.4705 26.4236 23.5588C26.4236 23.6324 26.3942 23.7207 26.3353 23.7796L23.7018 26.414C23.643 26.4729 23.5694 26.5024 23.4811 26.5024C23.4076 26.5024 23.3193 26.4582 23.2752 26.3993C23.2605 26.3699 23.231 26.3552 23.2163 26.3257C22.9662 26.0755 22.569 26.0755 22.3189 26.3257C22.0688 26.5759 22.0688 26.9733 22.3189 27.2235C22.4513 27.356 22.6425 27.4296 22.8338 27.4001C22.8779 27.3854 22.8779 27.3854 22.8927 27.3854Z" fill="#58437B"/>
<path d="M15.5139 16.2792L15.29 16.7917L17.4065 17.7169L17.6304 17.2044L15.5139 16.2792Z" fill="#58437B"/>
<path d="M34.6901 16.0024L32.8411 17.2343L33.151 17.6998L35 16.4679L34.6901 16.0024Z" fill="#58437B"/>
</svg>
