<svg width="50" height="50" viewBox="0 0 50 50" fill="none" xmlns="http://www.w3.org/2000/svg">
<path d="M19.5414 29.3917C19.5414 32.5229 22.0686 35.0556 25.1929 35.0556C28.3172 35.0556 30.8443 32.5229 30.8443 29.3917V19.0348C30.8443 15.9036 28.3172 13.3709 25.1929 13.3709C22.0686 13.3709 19.5414 15.9036 19.5414 19.0348V29.3917Z" fill="#C4B8AE"/>
<path d="M25.1929 35.3694C21.9083 35.3694 19.2283 32.6908 19.2283 29.3917V19.0347C19.2283 15.743 21.9011 13.057 25.1929 13.057C28.4774 13.057 31.1575 15.7357 31.1575 19.0347V29.3917C31.1575 32.6908 28.4774 35.3694 25.1929 35.3694ZM25.1929 13.6847C22.2506 13.6847 19.8546 16.086 19.8546 19.0347V29.3917C19.8546 32.3404 22.2506 34.7417 25.1929 34.7417C28.1351 34.7417 30.5311 32.3404 30.5311 29.3917V19.0347C30.5311 16.086 28.1351 13.6847 25.1929 13.6847Z" fill="black"/>
<path d="M22.3381 35.3986C22.3381 35.7197 22.0832 35.9752 21.7628 35.9752C21.4423 35.9752 21.1874 35.7197 21.1874 35.3986V34.3403C21.1874 34.0191 21.4423 33.7637 21.7628 33.7637C22.0832 33.7637 22.3381 34.0191 22.3381 34.3403V35.3986Z" fill="#F7941E"/>
<path d="M21.7554 36.289C21.2675 36.289 20.8669 35.8876 20.8669 35.3986V34.3403C20.8669 33.8512 21.2675 33.4498 21.7554 33.4498C22.2434 33.4498 22.6439 33.8512 22.6439 34.3403V35.3986C22.6439 35.8876 22.2434 36.289 21.7554 36.289ZM21.7554 34.0775C21.6098 34.0775 21.486 34.1943 21.486 34.3475V35.4059C21.486 35.5518 21.6025 35.6759 21.7554 35.6759C21.9084 35.6759 22.0249 35.5591 22.0249 35.4059V34.3403C22.0249 34.1943 21.9084 34.0775 21.7554 34.0775Z" fill="black"/>
<path d="M23.4887 35.3986C23.4887 35.7197 23.2338 35.9752 22.9134 35.9752C22.5929 35.9752 22.338 35.7197 22.338 35.3986V34.3403C22.338 34.0191 22.5929 33.7637 22.9134 33.7637C23.2338 33.7637 23.4887 34.0191 23.4887 34.3403V35.3986Z" fill="#F7941E"/>
<path d="M22.9133 36.289C22.4254 36.289 22.0248 35.8876 22.0248 35.3986V34.3403C22.0248 33.8512 22.4254 33.4498 22.9133 33.4498C23.4013 33.4498 23.8018 33.8512 23.8018 34.3403V35.3986C23.8018 35.8876 23.4013 36.289 22.9133 36.289ZM22.9133 34.0775C22.7677 34.0775 22.6439 34.1943 22.6439 34.3475V35.4059C22.6439 35.5518 22.7604 35.6759 22.9133 35.6759C23.0663 35.6759 23.1828 35.5591 23.1828 35.4059V34.3403C23.1828 34.1943 23.059 34.0775 22.9133 34.0775Z" fill="black"/>
<path d="M24.6467 35.3986C24.6467 35.7197 24.3918 35.9752 24.0713 35.9752C23.7509 35.9752 23.496 35.7197 23.496 35.3986V34.3403C23.496 34.0191 23.7509 33.7637 24.0713 33.7637C24.3918 33.7637 24.6467 34.0191 24.6467 34.3403V35.3986Z" fill="#F7941E"/>
<path d="M24.0714 36.289C23.5834 36.289 23.1829 35.8876 23.1829 35.3986V34.3403C23.1829 33.8512 23.5834 33.4498 24.0714 33.4498C24.5593 33.4498 24.9599 33.8512 24.9599 34.3403V35.3986C24.9599 35.8876 24.5593 36.289 24.0714 36.289ZM24.0714 34.0775C23.9257 34.0775 23.8019 34.1943 23.8019 34.3475V35.4059C23.8019 35.5518 23.9184 35.6759 24.0714 35.6759C24.217 35.6759 24.3408 35.5591 24.3408 35.4059V34.3403C24.3408 34.1943 24.217 34.0775 24.0714 34.0775Z" fill="black"/>
<path d="M28.0477 35.3986C28.0477 35.7197 28.3026 35.9752 28.6231 35.9752C28.9435 35.9752 29.1984 35.7197 29.1984 35.3986V34.3403C29.1984 34.0191 28.9435 33.7637 28.6231 33.7637C28.3026 33.7637 28.0477 34.0191 28.0477 34.3403V35.3986Z" fill="#F7941E"/>
<path d="M28.6303 36.289C28.1424 36.289 27.7418 35.8876 27.7418 35.3986V34.3403C27.7418 33.8512 28.1424 33.4498 28.6303 33.4498C29.1183 33.4498 29.5188 33.8512 29.5188 34.3403V35.3986C29.5115 35.8876 29.1183 36.289 28.6303 36.289ZM28.6303 34.0775C28.4847 34.0775 28.3609 34.1943 28.3609 34.3475V35.4059C28.3609 35.5518 28.4774 35.6759 28.6303 35.6759C28.7832 35.6759 28.8998 35.5591 28.8998 35.4059V34.3403C28.8925 34.1943 28.776 34.0775 28.6303 34.0775Z" fill="black"/>
<path d="M26.897 35.3986C26.897 35.7197 27.1519 35.9752 27.4724 35.9752C27.7928 35.9752 28.0477 35.7197 28.0477 35.3986V34.3403C28.0477 34.0191 27.7928 33.7637 27.4724 33.7637C27.1519 33.7637 26.897 34.0191 26.897 34.3403V35.3986Z" fill="#F7941E"/>
<path d="M27.4724 36.289C26.9845 36.289 26.5839 35.8876 26.5839 35.3986V34.3403C26.5839 33.8512 26.9845 33.4498 27.4724 33.4498C27.9604 33.4498 28.3609 33.8512 28.3609 34.3403V35.3986C28.3609 35.8876 27.9604 36.289 27.4724 36.289ZM27.4724 34.0775C27.3268 34.0775 27.203 34.1943 27.203 34.3475V35.4059C27.203 35.5518 27.3195 35.6759 27.4724 35.6759C27.6254 35.6759 27.7419 35.5591 27.7419 35.4059V34.3403C27.7419 34.1943 27.6181 34.0775 27.4724 34.0775Z" fill="black"/>
<path d="M25.7391 35.3986C25.7391 35.7197 25.994 35.9752 26.3144 35.9752C26.6349 35.9752 26.8898 35.7197 26.8898 35.3986V34.3403C26.8898 34.0191 26.6349 33.7637 26.3144 33.7637C25.994 33.7637 25.7391 34.0191 25.7391 34.3403V35.3986Z" fill="#F7941E"/>
<path d="M26.3145 36.289C25.8265 36.289 25.426 35.8876 25.426 35.3986V34.3403C25.426 33.8512 25.8265 33.4498 26.3145 33.4498C26.8024 33.4498 27.203 33.8512 27.203 34.3403V35.3986C27.203 35.8876 26.8024 36.289 26.3145 36.289ZM26.3145 34.0775C26.1688 34.0775 26.045 34.1943 26.045 34.3475V35.4059C26.045 35.5518 26.1615 35.6759 26.3145 35.6759C26.4601 35.6759 26.5839 35.5591 26.5839 35.4059V34.3403C26.5839 34.1943 26.4601 34.0775 26.3145 34.0775Z" fill="black"/>
<path d="M23.2848 21.6185C24.7006 21.6185 25.8484 20.1905 25.8484 18.4289C25.8484 16.6674 24.7006 15.2393 23.2848 15.2393C21.869 15.2393 20.7213 16.6674 20.7213 18.4289C20.7213 20.1905 21.869 21.6185 23.2848 21.6185Z" fill="white"/>
<path d="M27.101 21.6185C28.5168 21.6185 29.6645 20.1905 29.6645 18.4289C29.6645 16.6674 28.5168 15.2393 27.101 15.2393C25.6852 15.2393 24.5374 16.6674 24.5374 18.4289C24.5374 20.1905 25.6852 21.6185 27.101 21.6185Z" fill="white"/>
<path d="M23.2848 19.8376C24.0611 19.8376 24.6904 19.2069 24.6904 18.429C24.6904 17.651 24.0611 17.0203 23.2848 17.0203C22.5086 17.0203 21.8793 17.651 21.8793 18.429C21.8793 19.2069 22.5086 19.8376 23.2848 19.8376Z" fill="#C1DDD8"/>
<path d="M23.2848 19.0275C23.6146 19.0275 23.882 18.7595 23.882 18.4289C23.882 18.0984 23.6146 17.8304 23.2848 17.8304C22.955 17.8304 22.6876 18.0984 22.6876 18.4289C22.6876 18.7595 22.955 19.0275 23.2848 19.0275Z" fill="black"/>
<path d="M23.4378 18.4362C23.5303 18.4362 23.6053 18.3611 23.6053 18.2684C23.6053 18.1757 23.5303 18.1005 23.4378 18.1005C23.3453 18.1005 23.2703 18.1757 23.2703 18.2684C23.2703 18.3611 23.3453 18.4362 23.4378 18.4362Z" fill="white"/>
<path d="M27.101 19.8376C27.8773 19.8376 28.5066 19.2069 28.5066 18.429C28.5066 17.651 27.8773 17.0203 27.101 17.0203C26.3247 17.0203 25.6954 17.651 25.6954 18.429C25.6954 19.2069 26.3247 19.8376 27.101 19.8376Z" fill="#C1DDD8"/>
<path d="M27.101 19.0275C27.4309 19.0275 27.6982 18.7595 27.6982 18.4289C27.6982 18.0984 27.4309 17.8304 27.101 17.8304C26.7712 17.8304 26.5038 18.0984 26.5038 18.4289C26.5038 18.7595 26.7712 19.0275 27.101 19.0275Z" fill="black"/>
<path d="M27.2539 18.4362C27.3464 18.4362 27.4214 18.3611 27.4214 18.2684C27.4214 18.1757 27.3464 18.1005 27.2539 18.1005C27.1614 18.1005 27.0864 18.1757 27.0864 18.2684C27.0864 18.3611 27.1614 18.4362 27.2539 18.4362Z" fill="white"/>
<path d="M25.6662 20.7353C25.6662 20.6113 25.455 20.3923 25.1929 20.3923C24.9307 20.3923 24.7195 20.6113 24.7195 20.7353C24.7195 20.7426 24.7195 20.7572 24.7268 20.7645L25.1929 22.2827L25.659 20.7645C25.659 20.7572 25.6662 20.7353 25.6662 20.7353Z" fill="#F15A29"/>
<path d="M22.3526 23.5527C22.3599 23.8738 22.6148 24.1366 22.9425 24.1366C23.2702 24.1366 23.5251 23.8738 23.5324 23.5527H22.3526Z" fill="#98887A"/>
<path d="M26.8533 23.5527C26.8606 23.8738 27.1155 24.1366 27.4432 24.1366C27.7709 24.1366 28.0258 23.8738 28.0331 23.5527H26.8533Z" fill="#98887A"/>
<path d="M23.4814 24.6986C23.4887 25.0198 23.7436 25.2825 24.0713 25.2825C24.3991 25.2825 24.654 25.0198 24.6613 24.6986H23.4814Z" fill="#98887A"/>
<path d="M25.7318 24.6986C25.7391 25.0198 25.994 25.2825 26.3217 25.2825C26.6494 25.2825 26.9043 25.0198 26.9116 24.6986H25.7318Z" fill="#98887A"/>
<path d="M22.3526 25.8518C22.3599 26.1729 22.6148 26.4357 22.9425 26.4357C23.2702 26.4357 23.5251 26.1729 23.5324 25.8518H22.3526Z" fill="#98887A"/>
<path d="M24.603 25.8518C24.6102 26.1729 24.8651 26.4357 25.1929 26.4357C25.5133 26.4357 25.7755 26.1729 25.7828 25.8518H24.603Z" fill="#98887A"/>
<path d="M26.8533 25.8518C26.8606 26.1729 27.1155 26.4357 27.4432 26.4357C27.7709 26.4357 28.0258 26.1729 28.0331 25.8518H26.8533Z" fill="#98887A"/>
<path d="M23.4814 26.9977C23.4887 27.3189 23.7436 27.5816 24.0713 27.5816C24.3991 27.5816 24.654 27.3189 24.6613 26.9977H23.4814Z" fill="#98887A"/>
<path d="M25.7318 26.9977C25.7391 27.3189 25.994 27.5816 26.3217 27.5816C26.6494 27.5816 26.9043 27.3189 26.9116 26.9977H25.7318Z" fill="#98887A"/>
<path d="M24.603 28.1509C24.6102 28.4721 24.8651 28.7348 25.1929 28.7348C25.5133 28.7348 25.7755 28.4721 25.7828 28.1509H24.603Z" fill="#98887A"/>
<path d="M23.4814 29.3041C23.4887 29.6253 23.7436 29.888 24.0713 29.888C24.3991 29.888 24.654 29.6253 24.6613 29.3041H23.4814Z" fill="#98887A"/>
<path d="M25.7318 29.3041C25.7391 29.6253 25.994 29.888 26.3217 29.888C26.6494 29.888 26.9043 29.6253 26.9116 29.3041H25.7318Z" fill="#98887A"/>
<path d="M22.3526 30.45C22.3599 30.7712 22.6148 31.0339 22.9425 31.0339C23.2702 31.0339 23.5251 30.7712 23.5324 30.45H22.3526Z" fill="#98887A"/>
<path d="M24.603 30.45C24.6102 30.7712 24.8651 31.0339 25.1929 31.0339C25.5133 31.0339 25.7755 30.7712 25.7828 30.45H24.603Z" fill="#98887A"/>
<path d="M26.8533 30.45C26.8606 30.7712 27.1155 31.0339 27.4432 31.0339C27.7709 31.0339 28.0258 30.7712 28.0331 30.45H26.8533Z" fill="#98887A"/>
<path d="M23.4814 31.6032C23.4887 31.9244 23.7436 32.1871 24.0713 32.1871C24.3991 32.1871 24.654 31.9244 24.6613 31.6032H23.4814Z" fill="#98887A"/>
<path d="M25.7318 31.6032C25.7391 31.9244 25.994 32.1871 26.3217 32.1871C26.6494 32.1871 26.9043 31.9244 26.9116 31.6032H25.7318Z" fill="#98887A"/>
<path d="M24.603 32.7491C24.6102 33.0703 24.8651 33.333 25.1929 33.333C25.5133 33.333 25.7755 33.0703 25.7828 32.7491H24.603Z" fill="#98887A"/>
<path d="M30.8443 23.3191C28.7833 24.7643 27.3777 25.1803 27.3777 28.5742C27.3777 31.9755 30.5457 34.9169 32.6068 36.362L30.8443 23.3191Z" fill="#98887A"/>
<path d="M33.0001 37.0262L32.4174 36.6175C31.1575 35.7343 27.0573 32.5448 27.0573 28.5742C27.0573 25.4649 28.2371 24.6767 29.8757 23.5892C30.1234 23.4213 30.3855 23.2534 30.655 23.0564L31.0701 22.7644L33.0001 37.0262ZM30.604 23.8592C30.4729 23.9468 30.3491 24.0271 30.2253 24.1147C28.6377 25.1657 27.6836 25.8007 27.6836 28.5815C27.6836 31.7784 30.6404 34.4862 32.1917 35.6832L30.604 23.8592Z" fill="black"/>
<path d="M19.5415 23.3191C21.6025 24.7643 23.0081 25.1803 23.0081 28.5742C23.0081 31.9755 19.8401 34.9169 17.7791 36.362L19.5415 23.3191Z" fill="#98887A"/>
<path d="M17.3857 37.0262L19.3084 22.7717L19.7235 23.0636C19.993 23.2534 20.2552 23.4286 20.5028 23.5965C22.1414 24.684 23.3212 25.4649 23.3212 28.5815C23.3212 32.5521 19.221 35.7416 17.9611 36.6248L17.3857 37.0262ZM19.7818 23.8592L18.1868 35.6832C19.7381 34.4862 22.7022 31.7711 22.7022 28.5815C22.7022 25.808 21.7481 25.173 20.1605 24.1147C20.0367 24.0344 19.9129 23.9468 19.7818 23.8592Z" fill="black"/>
</svg>
