<svg width="50" height="50" viewBox="0 0 50 50" fill="none" xmlns="http://www.w3.org/2000/svg">
<path d="M32.4128 32.9392H17.5872V25.4947L25 18.6318L32.4128 25.4947V32.9392Z" fill="#F37F92"/>
<path d="M32.7326 33.2591H17.2675V25.3638L25 18.1956L32.7326 25.3638V33.2591ZM17.9215 32.6048H32.0785V25.6401L25 19.0825L17.9215 25.6401V32.6048Z" fill="#58437B"/>
<path d="M25 16.4507L15.3343 25.4075V26.1199H17.5872V25.4947L25 18.6318L32.4128 25.4947V26.1199H34.6657V25.4075L25 16.4507Z" fill="#7BD3F7"/>
<path d="M35 26.4398H32.0785V25.6401L25 19.0825L17.9215 25.6401V26.4398H15V25.262L25 16L35 25.262V26.4398ZM32.7326 25.7855H34.3314V25.5529L24.9855 16.9015L15.6395 25.5529V25.7855H17.2384V25.3493L24.9709 18.181L32.7035 25.3493V25.7855H32.7326Z" fill="#58437B"/>
<path d="M25 24.6805C22.6453 24.6805 20.7267 26.5852 20.7267 28.9552V32.9247H29.2587V28.9552C29.2732 26.5997 27.3546 24.6805 25 24.6805Z" fill="#CD6078"/>
<path d="M29.593 33.2591H20.407V28.9552C20.407 26.4253 22.4709 24.3606 25 24.3606C27.5291 24.3606 29.593 26.4253 29.593 28.9552V33.2591ZM21.0611 32.6048H28.939V28.9552C28.939 26.7888 27.1657 25.0149 25 25.0149C22.8343 25.0149 21.0611 26.7888 21.0611 28.9552V32.6048Z" fill="#58437B"/>
</svg>
