<svg width="50" height="50" viewBox="0 0 50 50" fill="none" xmlns="http://www.w3.org/2000/svg">
<path d="M21.9899 17.1544C21.9899 17.1544 15.8934 10.2315 13.603 16.4292C11.3127 22.6268 13.5207 23.3521 16.2229 19.5115C18.9087 15.6709 20.7541 17.8632 20.7541 17.8632L21.9899 17.1544Z" fill="#FFEED4"/>
<path d="M28.2842 17.1544C28.2842 17.1544 34.3808 10.2315 36.6711 16.4292C38.9614 22.6268 36.7535 23.3521 34.0512 19.5115C31.3655 15.6709 29.52 17.8632 29.52 17.8632L28.2842 17.1544Z" fill="#FFEED4"/>
<path d="M31.4479 26.319V21.6873C31.4479 19.7258 30.1956 17.9786 28.3502 17.3357C26.2905 16.627 24.0496 16.627 22.0065 17.3357C20.1446 17.9786 18.9088 19.7258 18.9088 21.6873V26.319C18.9088 27.6706 18.5957 29.0058 18.0355 30.242C17.8707 30.6046 17.7883 30.9837 17.7883 31.3793C17.7883 33.8188 21.1002 35.7968 25.1866 35.7968C29.2729 35.7968 32.5848 33.8188 32.5848 31.3793C32.5848 30.9837 32.5024 30.6046 32.3376 30.242C31.7609 29.0058 31.4479 27.6706 31.4479 26.319Z" fill="#FECD88"/>
<path d="M25.1701 36.1759C23.1269 36.1759 21.1991 35.6979 19.7491 34.8243C18.2332 33.9177 17.4094 32.698 17.4094 31.3793C17.4094 30.9343 17.5082 30.5057 17.6895 30.0936C18.2497 28.8409 18.5298 27.5717 18.5298 26.319V21.6873C18.5298 19.5609 19.8809 17.6819 21.8911 16.9896C24.0167 16.2643 26.3564 16.2643 28.482 16.9896C30.4922 17.6819 31.8433 19.5774 31.8433 21.6873V26.319C31.8433 27.5717 32.1234 28.8409 32.6837 30.0936C32.8649 30.5057 32.9638 30.9507 32.9638 31.3793C32.9638 32.698 32.1234 33.9177 30.624 34.8243C29.1246 35.6979 27.1968 36.1759 25.1701 36.1759ZM25.1701 17.1709C24.132 17.1709 23.094 17.3357 22.1218 17.6819C20.4082 18.2753 19.2548 19.8741 19.2548 21.6873V26.319C19.2548 27.6871 18.9582 29.0552 18.3486 30.3903C18.2003 30.7035 18.1344 31.0496 18.1344 31.3793C18.1344 32.4177 18.8429 33.4232 20.1116 34.1814C21.4463 34.9891 23.2423 35.4177 25.1536 35.4177C27.065 35.4177 28.8445 34.9726 30.1956 34.1814C31.4808 33.4232 32.1729 32.4177 32.1729 31.3793C32.1729 31.0496 32.107 30.72 31.9587 30.3903C31.3655 29.0387 31.0524 27.6706 31.0524 26.319V21.6873C31.0524 19.8906 29.899 18.2753 28.2019 17.6819C27.2297 17.3522 26.1917 17.1709 25.1701 17.1709Z" fill="#58437B"/>
<path d="M13.4548 22.2477C13.2736 22.2477 13.1088 22.2147 12.9605 22.1323C11.9554 21.6048 12.0543 19.528 13.2571 16.2973C13.8503 14.682 14.773 13.7424 15.9593 13.5281C18.7934 13.0007 22.1218 16.7423 22.2701 16.9072C22.336 16.9896 22.3689 17.105 22.3525 17.2203C22.336 17.3357 22.2701 17.4346 22.1712 17.4841L20.9354 18.1928C20.7871 18.2753 20.5894 18.2423 20.4741 18.1104C20.4576 18.0939 20.0127 17.583 19.2548 17.6159C18.4144 17.6654 17.4587 18.3906 16.5196 19.7258C15.3662 21.3576 14.2787 22.2477 13.4548 22.2477ZM16.536 14.2204C16.3877 14.2204 16.2394 14.2369 16.0911 14.2534C15.1684 14.4182 14.4434 15.1929 13.9491 16.5445C12.7463 19.7752 12.9111 21.2422 13.3065 21.4565C13.6196 21.6213 14.5917 21.1763 15.9099 19.2807C16.9974 17.7148 18.1178 16.9072 19.2218 16.8577C19.9633 16.8248 20.507 17.1544 20.8036 17.3852L21.3968 17.039C20.5894 16.2478 18.4144 14.2204 16.536 14.2204Z" fill="#58437B"/>
<path d="M36.8194 22.2477C35.9791 22.2477 34.908 21.3576 33.7546 19.7258C32.8155 18.3906 31.8763 17.6489 31.0194 17.6159C30.2615 17.583 29.8166 18.0775 29.8001 18.1104C29.6848 18.2423 29.4871 18.2753 29.3388 18.1928L28.103 17.4841C28.0041 17.4346 27.9382 17.3357 27.9217 17.2203C27.9053 17.105 27.9382 17.0061 28.0041 16.9072C28.1524 16.7423 31.4808 13.0007 34.3149 13.5281C35.5177 13.7589 36.4239 14.682 37.0171 16.2973C38.22 19.528 38.3188 21.5884 37.3137 22.1323C37.1654 22.1982 37.0006 22.2477 36.8194 22.2477ZM30.9535 16.8577C30.9865 16.8577 31.0194 16.8577 31.0524 16.8577C32.1564 16.9072 33.2768 17.7313 34.3643 19.2807C35.6825 21.1598 36.6546 21.6048 36.9677 21.4565C37.3631 21.2422 37.5279 19.7752 36.3251 16.5445C35.8308 15.1929 35.1058 14.4182 34.1831 14.2534C32.2058 13.8908 29.7507 16.1819 28.8774 17.0555L29.4706 17.4017C29.7507 17.1709 30.2615 16.8577 30.9535 16.8577Z" fill="#58437B"/>
<path d="M21.957 24.9509C22.3847 24.9509 22.7314 24.6041 22.7314 24.1762C22.7314 23.7484 22.3847 23.4015 21.957 23.4015C21.5293 23.4015 21.1826 23.7484 21.1826 24.1762C21.1826 24.6041 21.5293 24.9509 21.957 24.9509Z" fill="#58437B"/>
<path d="M28.3831 24.9509C28.8108 24.9509 29.1575 24.6041 29.1575 24.1762C29.1575 23.7484 28.8108 23.4015 28.3831 23.4015C27.9554 23.4015 27.6086 23.7484 27.6086 24.1762C27.6086 24.6041 27.9554 24.9509 28.3831 24.9509Z" fill="#58437B"/>
<path d="M25.1701 26.8465C21.9076 26.8465 19.1065 30.0112 17.8213 31.8903C18.2497 34.0825 21.3804 35.7968 25.1701 35.7968C28.9598 35.7968 32.074 34.0825 32.5189 31.8903C31.2337 29.9947 28.4161 26.8465 25.1701 26.8465Z" fill="#FFEED4"/>
<path d="M25.1701 36.1759C23.2917 36.1759 21.4792 35.7638 20.0621 35.0056C18.6122 34.2309 17.6894 33.1595 17.4588 31.9727C17.4423 31.8738 17.4588 31.7749 17.5082 31.6925C18.0025 30.9672 19.0406 29.5662 20.507 28.3794C22.0724 27.1267 23.6212 26.4839 25.1536 26.4839C26.6859 26.4839 28.2513 27.1267 29.8001 28.3794C31.2666 29.5662 32.3047 30.9672 32.799 31.6925C32.8484 31.7749 32.8814 31.8738 32.8484 31.9727C32.6177 33.1595 31.695 34.2309 30.245 35.0056C28.8609 35.7473 27.0484 36.1759 25.1701 36.1759ZM18.2167 31.9727C18.4474 32.8793 19.2218 33.7199 20.4082 34.3463C21.7099 35.0386 23.407 35.4342 25.1701 35.4342C26.9331 35.4342 28.6138 35.0551 29.9319 34.3463C31.1183 33.7199 31.8927 32.8793 32.1234 31.9727C30.5251 29.6486 27.8888 27.2091 25.1865 27.2091C22.4513 27.2091 19.815 29.6486 18.2167 31.9727Z" fill="#58437B"/>
<path d="M25.17 31.6265C24.9723 31.6265 24.7911 31.4617 24.7911 31.2474V29.8464C24.7911 29.6486 24.9558 29.4673 25.17 29.4673C25.3843 29.4673 25.549 29.6321 25.549 29.8464V31.2474C25.5325 31.4617 25.3678 31.6265 25.17 31.6265Z" fill="#58437B"/>
<path d="M24.6593 29.6486L23.8519 28.7915C23.6542 28.5937 23.8025 28.2475 24.0826 28.2475H26.2411C26.5212 28.2475 26.6695 28.5772 26.4718 28.7915L25.6644 29.6486C25.3843 29.9288 24.9394 29.9288 24.6593 29.6486Z" fill="#CCDDE7"/>
<path d="M25.1701 30.2255C24.8735 30.2255 24.5934 30.1101 24.3957 29.8958L23.5883 29.0387C23.4071 28.8409 23.3412 28.5442 23.4565 28.297C23.5718 28.0497 23.819 27.8849 24.0991 27.8849H26.2576C26.5377 27.8849 26.7849 28.0497 26.9002 28.297C27.0156 28.5442 26.9661 28.8409 26.7684 29.0387L25.961 29.8958C25.7303 30.1101 25.4502 30.2255 25.1701 30.2255ZM24.9394 29.3848C25.0053 29.4508 25.0877 29.4837 25.1701 29.4837C25.2525 29.4837 25.3349 29.4508 25.4008 29.3848L26.1258 28.6101H24.198L24.9394 29.3848Z" fill="#58437B"/>
<path d="M25.17 33.143C24.8405 33.143 24.511 33.11 24.1979 33.0276L23.7365 32.9122C23.5388 32.8628 23.4235 32.665 23.4729 32.4672C23.5223 32.2694 23.7201 32.154 23.9178 32.2034L24.3791 32.3188C24.8899 32.4507 25.4502 32.4507 25.9609 32.3188L26.4223 32.2034C26.62 32.154 26.8178 32.2694 26.8672 32.4672C26.9166 32.665 26.8013 32.8628 26.6036 32.9122L26.1422 33.0276C25.8127 33.11 25.4831 33.143 25.17 33.143Z" fill="#58437B"/>
</svg>
