<svg width="20" height="20" viewBox="0 0 20 20" fill="none" xmlns="http://www.w3.org/2000/svg">
<path d="M3.75 10C4.9006 10 5.83334 9.06726 5.83334 7.91666C5.83334 6.76607 4.9006 5.83333 3.75 5.83333C2.59941 5.83333 1.66667 6.76607 1.66667 7.91666C1.66667 9.06726 2.59941 10 3.75 10Z" fill="#4B5563"/>
<path d="M7.50001 6.66667C8.6506 6.66667 9.58334 5.73393 9.58334 4.58333C9.58334 3.43274 8.6506 2.5 7.50001 2.5C6.34941 2.5 5.41667 3.43274 5.41667 4.58333C5.41667 5.73393 6.34941 6.66667 7.50001 6.66667Z" fill="#4B5563"/>
<path d="M12.5 6.66667C13.6506 6.66667 14.5833 5.73393 14.5833 4.58333C14.5833 3.43274 13.6506 2.5 12.5 2.5C11.3494 2.5 10.4167 3.43274 10.4167 4.58333C10.4167 5.73393 11.3494 6.66667 12.5 6.66667Z" fill="#4B5563"/>
<path d="M16.25 10C17.4006 10 18.3333 9.06726 18.3333 7.91666C18.3333 6.76607 17.4006 5.83333 16.25 5.83333C15.0994 5.83333 14.1667 6.76607 14.1667 7.91666C14.1667 9.06726 15.0994 10 16.25 10Z" fill="#4B5563"/>
<path d="M14.45 12.3833C13.725 11.5333 13.1167 10.8083 12.3833 9.95833C12 9.50833 11.5083 9.05833 10.925 8.85833C10.8333 8.825 10.7417 8.8 10.65 8.78333C10.4417 8.75 10.2167 8.75 10 8.75C9.78334 8.75 9.55834 8.75 9.34167 8.79167C9.25 8.80833 9.15834 8.83333 9.06667 8.86667C8.48334 9.06667 8 9.51667 7.60834 9.96667C6.88334 10.8167 6.275 11.5417 5.54167 12.3917C4.45 13.4833 3.10834 14.6917 3.35834 16.3833C3.6 17.2333 4.20834 18.075 5.3 18.3167C5.90834 18.4417 7.85 17.95 9.91667 17.95H10.0667C12.1333 17.95 14.075 18.4333 14.6833 18.3167C15.775 18.075 16.3833 17.225 16.625 16.3833C16.8833 14.6833 15.5417 13.475 14.45 12.3833Z" fill="#4B5563"/>
</svg>
