<svg width="98" height="32" viewBox="0 0 98 32" fill="none" xmlns="http://www.w3.org/2000/svg">
<rect width="32" height="32" rx="10" fill="#2A41E8"/>
<path d="M42.8613 8.0625C42.9902 8.01562 43.0898 7.99219 43.1602 7.99219C43.1836 7.99219 43.2188 7.98633 43.2656 7.97461C43.3242 7.96289 43.3711 7.95117 43.4062 7.93945C43.4883 7.91602 43.5527 7.92773 43.5996 7.97461C43.6699 7.95117 43.7344 7.93945 43.793 7.93945C43.9102 7.95117 43.9863 7.95703 44.0215 7.95703C44.0566 7.94531 44.0859 7.93945 44.1094 7.93945C44.2031 7.93945 44.291 7.94531 44.373 7.95703C44.4668 7.95703 44.5605 7.94531 44.6543 7.92188C44.6895 7.95703 44.7305 7.96875 44.7773 7.95703C44.8242 7.94531 44.877 7.93945 44.9355 7.93945C45.0527 7.93945 45.123 7.93945 45.1465 7.93945C45.1816 7.92773 45.2109 7.92188 45.2344 7.92188C45.3281 7.94531 45.3867 7.95703 45.4102 7.95703C45.4336 7.94531 45.457 7.93945 45.4805 7.93945C45.5625 7.92773 45.6328 7.93945 45.6914 7.97461C45.7617 7.99805 45.832 8.01562 45.9023 8.02734C45.9727 8.08594 46.0195 8.13281 46.043 8.16797C46.125 8.26172 46.166 8.33203 46.166 8.37891C46.166 8.41406 46.1777 8.44336 46.2012 8.4668C46.1895 8.51367 46.1953 8.56055 46.2188 8.60742C46.2422 8.64258 46.248 8.68945 46.2363 8.74805C46.2246 8.85352 46.2188 8.92383 46.2188 8.95898C46.2305 8.98242 46.2363 9.00586 46.2363 9.0293C46.2363 9.08789 46.2305 9.15234 46.2188 9.22266C46.207 9.28125 46.2129 9.3457 46.2363 9.41602C46.2246 9.55664 46.2012 9.70898 46.166 9.87305C46.1426 10.0254 46.1484 10.1543 46.1836 10.2598C46.1367 10.3418 46.1191 10.3887 46.1309 10.4004C46.1426 10.4121 46.1543 10.4297 46.166 10.4531C46.1426 10.5 46.1309 10.5469 46.1309 10.5938C46.1426 10.6406 46.1543 10.6934 46.166 10.752C46.1426 10.7988 46.125 10.8516 46.1133 10.9102C46.1133 10.9688 46.1133 11.0273 46.1133 11.0859C46.125 11.168 46.1191 11.2441 46.0957 11.3145C46.0723 11.373 46.0664 11.4434 46.0781 11.5254C46.0664 11.7246 46.0605 11.9238 46.0605 12.123C46.0605 12.3105 46.0547 12.4863 46.043 12.6504C46.043 12.7441 46.0312 12.8379 46.0078 12.9316C45.9961 13.0488 45.9961 13.1602 46.0078 13.2656C46.0195 13.3594 46.0254 13.4473 46.0254 13.5293V13.7578C46.0254 13.8047 46.0195 13.8516 46.0078 13.8984C46.0078 13.9453 46.0078 13.9863 46.0078 14.0215C46.0195 14.1504 46.0254 14.2734 46.0254 14.3906C46.0254 14.5078 46.0371 14.625 46.0605 14.7422L46.0781 14.9707C46.0664 15.0059 46.0605 15.0469 46.0605 15.0938C46.0723 15.1289 46.0781 15.1641 46.0781 15.1992C46.0781 15.293 46.0781 15.3457 46.0781 15.3574C46.0898 15.3691 46.0957 15.3867 46.0957 15.4102C46.0957 15.4453 46.0898 15.4805 46.0781 15.5156C46.0781 15.5508 46.0781 15.5859 46.0781 15.6211C46.0898 15.7734 46.1133 15.8672 46.1484 15.9023C46.1602 15.9961 46.1602 16.084 46.1484 16.166C46.1484 16.248 46.1543 16.3301 46.166 16.4121C46.2012 16.541 46.2129 16.623 46.2012 16.6582C46.2012 16.6816 46.2012 16.7109 46.2012 16.7461C46.1895 16.8984 46.1953 17.0332 46.2188 17.1504C46.2422 17.2676 46.2539 17.3613 46.2539 17.4316V17.6426L46.2363 17.8711C46.2598 17.9883 46.3066 18.0527 46.377 18.0645C46.459 18.0762 46.5176 18.0762 46.5527 18.0645L46.8164 18.1348C46.875 18.1465 46.9219 18.1582 46.957 18.1699C47.0039 18.1699 47.0566 18.1758 47.1152 18.1875C47.1973 18.1641 47.2559 18.1582 47.291 18.1699C47.3262 18.1699 47.3438 18.1523 47.3438 18.1172C47.4023 18.1523 47.4902 18.1699 47.6074 18.1699C47.7246 18.1582 47.8301 18.1582 47.9238 18.1699C48.0293 18.1699 48.0996 18.1699 48.1348 18.1699C48.1816 18.1699 48.2168 18.1582 48.2402 18.1348C48.334 18.1465 48.4453 18.1523 48.5742 18.1523C48.7148 18.1523 48.8203 18.1406 48.8906 18.1172C48.9609 18.1406 49.0488 18.1523 49.1543 18.1523C49.2715 18.1406 49.3711 18.1289 49.4531 18.1172C49.5234 18.1055 49.582 18.1055 49.6289 18.1172C49.6758 18.1289 49.7051 18.1289 49.7168 18.1172C49.834 18.082 49.9336 18.0703 50.0156 18.082C50.1094 18.1289 50.1621 18.1465 50.1738 18.1348C50.1973 18.1113 50.2207 18.1113 50.2441 18.1348C50.291 18.1699 50.3203 18.2051 50.332 18.2402C50.3438 18.2754 50.3613 18.3047 50.3848 18.3281C50.373 18.3984 50.3789 18.457 50.4023 18.5039C50.4258 18.5508 50.4258 18.6035 50.4023 18.6621C50.3672 18.7793 50.3379 18.8438 50.3145 18.8555C50.3027 18.8672 50.291 18.8848 50.2793 18.9082C50.2441 19.002 50.2266 19.0605 50.2266 19.084C50.2383 19.1074 50.2324 19.1367 50.209 19.1719C50.1504 19.3008 50.1152 19.377 50.1035 19.4004C50.0918 19.4121 50.0801 19.4297 50.0684 19.4531C50.0098 19.582 49.9805 19.6641 49.9805 19.6992C49.9336 19.7812 49.9102 19.8457 49.9102 19.8926C49.8164 20.0098 49.7695 20.0801 49.7695 20.1035C49.7695 20.127 49.7637 20.1504 49.752 20.1738C49.7402 20.2207 49.7285 20.2617 49.7168 20.2969C49.7051 20.3203 49.6875 20.3496 49.6641 20.3848C49.6172 20.4551 49.5879 20.502 49.5762 20.5254C49.5762 20.5488 49.5703 20.5723 49.5586 20.5957C49.5 20.6777 49.4707 20.7363 49.4707 20.7715C49.4121 20.8652 49.3711 20.9238 49.3477 20.9473C49.3008 21.0293 49.2656 21.0645 49.2422 21.0527C49.2188 21.0527 49.207 21.0645 49.207 21.0879C49.1133 21.1348 49.0547 21.1523 49.0312 21.1406C49.0078 21.1289 48.9844 21.123 48.9609 21.123C48.9141 21.1465 48.8379 21.1465 48.7324 21.123C48.6738 21.123 48.6211 21.1289 48.5742 21.1406C48.5273 21.1523 48.4746 21.1465 48.416 21.123C48.3574 21.0996 48.3164 21.0879 48.293 21.0879C48.2695 21.0996 48.2461 21.1055 48.2227 21.1055C48.1641 21.1055 48.1113 21.1055 48.0645 21.1055C48.0176 21.1172 47.9648 21.1113 47.9062 21.0879C47.8711 21.1113 47.8359 21.1172 47.8008 21.1055C47.7656 21.1055 47.7246 21.1055 47.6777 21.1055H47.3789C47.2617 21.082 47.1797 21.0645 47.1328 21.0527C46.9922 21.0762 46.9102 21.0762 46.8867 21.0527C46.7344 21.0293 46.6113 21.0293 46.5176 21.0527C46.4473 21.0762 46.3945 21.082 46.3594 21.0703C46.3359 21.0586 46.3125 21.0527 46.2891 21.0527C46.2305 21.0645 46.1895 21.0703 46.166 21.0703C46.1426 21.082 46.1133 21.0879 46.0781 21.0879C45.9727 21.0762 45.9082 21.0703 45.8848 21.0703C45.8613 21.0703 45.8496 21.0645 45.8496 21.0527C45.7676 21.041 45.6797 21.0352 45.5859 21.0352C45.5039 21.0352 45.4102 21.0352 45.3047 21.0352C45.2695 21.0234 45.2344 21.0176 45.1992 21.0176C45.1641 21.0176 45.1289 21.0059 45.0938 20.9824C44.9766 20.9238 44.9062 20.8945 44.8828 20.8945C44.8594 20.8828 44.8359 20.877 44.8125 20.877C44.7773 20.8535 44.7422 20.8242 44.707 20.7891C44.6719 20.7539 44.625 20.7188 44.5664 20.6836C44.5078 20.625 44.4668 20.5723 44.4434 20.5254C44.3496 20.4199 44.2969 20.3672 44.2852 20.3672C44.2734 20.3555 44.2676 20.3379 44.2676 20.3145C44.2324 20.2793 44.1914 20.25 44.1445 20.2266C44.1094 20.1914 44.0801 20.1445 44.0566 20.0859C44.0098 20.0625 43.9746 20.0332 43.9512 19.998C43.9277 19.9512 43.8984 19.8984 43.8633 19.8398C43.7461 19.7461 43.6934 19.6992 43.7051 19.6992C43.6699 19.6289 43.6406 19.5879 43.6172 19.5762C43.6055 19.5527 43.5879 19.5293 43.5645 19.5059C43.4473 19.3652 43.3711 19.2598 43.3359 19.1895C43.3125 19.1074 43.2656 19.0547 43.1953 19.0312C43.1953 18.9727 43.1777 18.9375 43.1426 18.9258C43.1191 18.9023 43.0957 18.8789 43.0723 18.8555C43.0254 18.75 42.9961 18.6973 42.9844 18.6973C42.9727 18.6855 42.9668 18.668 42.9668 18.6445C42.9668 18.5391 42.9727 18.4746 42.9844 18.4512C42.9961 18.4277 43.002 18.3984 43.002 18.3633C42.9551 18.1875 42.9375 18.041 42.9492 17.9238C42.9141 17.877 42.9023 17.8301 42.9141 17.7832C42.9375 17.7363 42.9258 17.7012 42.8789 17.6777C42.8906 17.5137 42.8965 17.3613 42.8965 17.2207C42.8848 17.1152 42.8789 17.0449 42.8789 17.0098C42.8789 16.9746 42.8789 16.9453 42.8789 16.9219C42.8906 16.8867 42.8965 16.8516 42.8965 16.8164C42.8965 16.7461 42.8965 16.6758 42.8965 16.6055C42.8965 16.5234 42.9023 16.4414 42.9141 16.3594C42.9258 16.3242 42.9375 16.2891 42.9492 16.2539C42.9609 16.2188 42.9668 16.1895 42.9668 16.166C42.9668 16.0488 42.9668 15.9844 42.9668 15.9727C42.9785 15.9492 42.9844 15.9316 42.9844 15.9199C42.9609 15.873 42.9434 15.832 42.9316 15.7969C42.9316 15.7617 42.9316 15.7324 42.9316 15.709C42.9316 15.6738 42.9375 15.6387 42.9492 15.6035C42.9609 15.5684 42.9668 15.5332 42.9668 15.498L42.9141 15.3047V15.1113C42.9258 15.0176 42.9258 14.9121 42.9141 14.7949C42.9141 14.666 42.9199 14.5488 42.9316 14.4434C42.9785 14.2676 42.9961 14.1445 42.9844 14.0742C42.9727 14.0039 42.9551 13.9219 42.9316 13.8281C42.9668 13.6992 42.9785 13.6172 42.9668 13.582C42.9551 13.5469 42.9492 13.5117 42.9492 13.4766C42.9609 13.3594 42.9609 13.2949 42.9492 13.2832C42.9492 13.2598 42.9492 13.2363 42.9492 13.2129C42.9492 13.1426 42.9434 13.0957 42.9316 13.0723C42.9199 13.0371 42.9141 13.002 42.9141 12.9668C42.9375 12.8613 42.9492 12.8027 42.9492 12.791C42.9609 12.7676 42.9668 12.7441 42.9668 12.7207L42.9492 12.5098L42.9316 12.2461C42.9199 12.1406 42.9141 12.0469 42.9141 11.9648C42.8906 11.7422 42.8906 11.5781 42.9141 11.4727C42.9375 11.3672 42.9199 11.2793 42.8613 11.209C42.8848 11.1035 42.8965 11.0273 42.8965 10.9805C42.8965 10.9336 42.9023 10.8809 42.9141 10.8223C42.9258 10.6816 42.9258 10.6055 42.9141 10.5938C42.9141 10.582 42.9141 10.5645 42.9141 10.541C42.9375 10.4004 42.9375 10.2949 42.9141 10.2246C42.9023 10.1426 42.8965 10.0605 42.8965 9.97852C42.8848 9.86133 42.8789 9.79688 42.8789 9.78516C42.8906 9.76172 42.8965 9.73828 42.8965 9.71484C42.8848 9.67969 42.8789 9.63867 42.8789 9.5918C42.8906 9.5332 42.8965 9.47461 42.8965 9.41602C42.8965 9.3457 42.8848 9.26367 42.8613 9.16992C42.873 9.06445 42.8672 8.97656 42.8438 8.90625C42.832 8.82422 42.8262 8.74219 42.8262 8.66016C42.8145 8.57812 42.8145 8.51953 42.8262 8.48438C42.8379 8.44922 42.8438 8.4082 42.8438 8.36133C42.832 8.29102 42.8379 8.23828 42.8613 8.20312C42.8848 8.15625 42.8848 8.10938 42.8613 8.0625ZM60.0766 7.67578C60.147 7.67578 60.1997 7.68164 60.2348 7.69336C60.27 7.69336 60.2993 7.68164 60.3227 7.6582C60.4165 7.69336 60.522 7.71094 60.6391 7.71094C60.7563 7.71094 60.8794 7.71094 61.0083 7.71094C61.0903 7.74609 61.1489 7.76953 61.1841 7.78125C61.2192 7.78125 61.2485 7.78125 61.272 7.78125C61.354 7.80469 61.4126 7.81641 61.4477 7.81641C61.4829 7.81641 61.5122 7.82812 61.5356 7.85156C61.6059 7.88672 61.6938 7.91602 61.7993 7.93945C61.8579 7.95117 61.9282 7.96289 62.0102 7.97461C62.0923 7.98633 62.1626 7.99219 62.2212 7.99219C62.2563 8.02734 62.2973 8.05078 62.3442 8.0625C62.3911 8.0625 62.438 8.07422 62.4848 8.09766C62.5083 8.12109 62.5376 8.13867 62.5727 8.15039C62.6079 8.16211 62.6372 8.17969 62.6606 8.20312C62.7192 8.20312 62.772 8.22656 62.8188 8.27344C62.8657 8.30859 62.9067 8.34375 62.9419 8.37891C63.0591 8.41406 63.1411 8.44336 63.188 8.4668C63.3403 8.52539 63.4282 8.55469 63.4516 8.55469C63.4751 8.55469 63.4985 8.56055 63.522 8.57227C63.6274 8.66602 63.6802 8.71875 63.6802 8.73047C63.6919 8.73047 63.7095 8.74219 63.7329 8.76562C63.8618 8.84766 63.938 8.90039 63.9614 8.92383C63.9848 8.93555 64.02 8.93555 64.0669 8.92383C64.1723 9.00586 64.2368 9.04688 64.2602 9.04688C64.2837 9.04688 64.3071 9.05273 64.3305 9.06445C64.3657 9.09961 64.395 9.12891 64.4184 9.15234C64.4419 9.17578 64.4653 9.19922 64.4888 9.22266C64.5473 9.26953 64.5884 9.31055 64.6118 9.3457C64.6352 9.38086 64.6587 9.41016 64.6821 9.43359C64.7641 9.46875 64.8052 9.49805 64.8052 9.52148C64.8169 9.5332 64.8345 9.5332 64.8579 9.52148L64.9985 9.66211C65.0805 9.79102 65.1274 9.85547 65.1391 9.85547C65.1509 9.85547 65.1626 9.86719 65.1743 9.89062C65.2329 9.96094 65.268 10.0078 65.2798 10.0312C65.3032 10.0547 65.3266 10.0781 65.3501 10.1016C65.4321 10.2188 65.479 10.2773 65.4907 10.2773C65.5141 10.2773 65.5317 10.2832 65.5434 10.2949C65.6255 10.377 65.6723 10.4355 65.6841 10.4707C65.6958 10.4941 65.7016 10.5234 65.7016 10.5586C65.7368 10.5938 65.772 10.623 65.8071 10.6465C65.8423 10.6582 65.8716 10.6875 65.895 10.7344C65.9067 10.7812 65.9184 10.8164 65.9302 10.8398C65.9419 10.8633 65.9536 10.8926 65.9653 10.9277C66.0239 10.9863 66.0591 11.0273 66.0708 11.0508C66.0825 11.0742 66.1001 11.0918 66.1235 11.1035C66.147 11.1855 66.1763 11.2617 66.2114 11.332C66.2583 11.3906 66.2993 11.4551 66.3345 11.5254C66.3813 11.6777 66.4165 11.7773 66.4399 11.8242C66.4516 11.8477 66.4575 11.877 66.4575 11.9121C66.4692 11.9473 66.4809 11.9824 66.4927 12.0176C66.563 12.123 66.5981 12.1992 66.5981 12.2461C66.5981 12.293 66.6098 12.3457 66.6333 12.4043C66.6684 12.5098 66.6919 12.5801 66.7036 12.6152C66.7153 12.6387 66.7212 12.6621 66.7212 12.6855C66.7563 12.8613 66.768 12.9844 66.7563 13.0547C66.7563 13.1133 66.7622 13.1777 66.7739 13.248C66.7973 13.3535 66.8091 13.418 66.8091 13.4414C66.8208 13.4531 66.8325 13.4707 66.8442 13.4941C66.8559 13.6113 66.8618 13.6699 66.8618 13.6699C66.8735 13.6699 66.8794 13.6816 66.8794 13.7051C66.8911 13.752 66.897 13.8047 66.897 13.8633C66.9087 13.9219 66.9263 13.9746 66.9497 14.0215C66.9497 14.0801 66.9438 14.127 66.9321 14.1621C66.9321 14.1973 66.938 14.2324 66.9497 14.2676C66.9497 14.3379 66.9497 14.4023 66.9497 14.4609C66.9614 14.5547 66.9614 14.6074 66.9497 14.6191C66.9497 14.6309 66.9497 14.6484 66.9497 14.6719C66.938 14.7188 66.9321 14.7656 66.9321 14.8125C66.9438 14.8594 66.9497 14.9062 66.9497 14.9531C66.9497 15.0352 66.9438 15.1113 66.9321 15.1816C66.9204 15.252 66.9145 15.3281 66.9145 15.4102C66.9145 15.5273 66.9145 15.5859 66.9145 15.5859C66.9263 15.5859 66.9321 15.5918 66.9321 15.6035C66.9087 15.7793 66.8735 15.9199 66.8266 16.0254C66.8384 16.084 66.8384 16.1426 66.8266 16.2012C66.8149 16.248 66.8032 16.3008 66.7915 16.3594C66.768 16.418 66.7505 16.4707 66.7388 16.5176C66.7388 16.5527 66.727 16.5938 66.7036 16.6406C66.645 16.7578 66.6098 16.8398 66.5981 16.8867C66.5864 16.9219 66.5805 16.9688 66.5805 17.0273C66.522 17.0859 66.4809 17.1562 66.4575 17.2383C66.4458 17.3086 66.4048 17.3672 66.3345 17.4141C66.2524 17.5312 66.2114 17.6016 66.2114 17.625C66.2114 17.6484 66.2055 17.6719 66.1938 17.6953C66.1704 17.7422 66.1352 17.7949 66.0884 17.8535C66.0532 17.9004 66.0239 17.9531 66.0005 18.0117C65.9419 18.0938 65.9009 18.1465 65.8774 18.1699C65.8305 18.252 65.7895 18.3105 65.7544 18.3457C65.7309 18.3691 65.7075 18.4043 65.6841 18.4512C65.6606 18.4863 65.6313 18.5215 65.5962 18.5566C65.5727 18.5918 65.5552 18.6387 65.5434 18.6973C65.4614 18.7676 65.4145 18.8145 65.4028 18.8379C65.4028 18.8613 65.397 18.8848 65.3852 18.9082C65.3266 18.9902 65.2915 19.0371 65.2798 19.0488C65.2798 19.0605 65.268 19.0723 65.2446 19.084C65.1626 19.1543 65.104 19.207 65.0688 19.2422C65.0454 19.2773 65.022 19.3066 64.9985 19.3301C64.8813 19.4238 64.8052 19.4824 64.77 19.5059C64.7348 19.5293 64.7055 19.5586 64.6821 19.5938C64.5884 19.6875 64.5415 19.7344 64.5415 19.7344C64.5415 19.7227 64.5298 19.7168 64.5063 19.7168C64.4009 19.8223 64.3305 19.8926 64.2954 19.9277C64.272 19.9629 64.2427 19.9922 64.2075 20.0156C64.1723 20.0391 64.1313 20.0684 64.0845 20.1035C64.0493 20.1387 64.0141 20.168 63.979 20.1914C63.9555 20.2148 63.9263 20.2383 63.8911 20.2617C63.8559 20.2852 63.8266 20.3086 63.8032 20.332C63.6977 20.4141 63.6333 20.4609 63.6098 20.4727C63.5981 20.4727 63.5864 20.4844 63.5747 20.5078C63.4927 20.5312 63.4106 20.5664 63.3286 20.6133C63.2583 20.6602 63.1821 20.6953 63.1001 20.7188C62.9712 20.7773 62.895 20.8184 62.8716 20.8418C62.8481 20.8535 62.8247 20.8652 62.8013 20.877C62.6841 20.9121 62.6196 20.9297 62.6079 20.9297C62.6079 20.918 62.5962 20.918 62.5727 20.9297C62.4438 20.9766 62.3559 21 62.3091 21C62.2739 20.9883 62.227 20.9941 62.1684 21.0176C62.0395 21.0527 61.9751 21.0703 61.9751 21.0703C61.7876 21.1055 61.6528 21.1348 61.5708 21.1582C61.4888 21.1816 61.4067 21.1992 61.3247 21.2109C61.2778 21.2227 61.1958 21.2285 61.0786 21.2285C61.02 21.252 60.9731 21.2637 60.938 21.2637C60.9145 21.2754 60.8911 21.2871 60.8677 21.2988C60.7505 21.3105 60.6567 21.3105 60.5864 21.2988C60.5161 21.2871 60.4223 21.2988 60.3052 21.334C60.2583 21.3105 60.2055 21.3047 60.147 21.3164C60.1001 21.3281 60.0649 21.3223 60.0415 21.2988C59.9243 21.2988 59.8423 21.3047 59.7954 21.3164C59.7485 21.3281 59.7075 21.334 59.6723 21.334C59.5552 21.3223 59.4731 21.3105 59.4263 21.2988C59.3911 21.2988 59.3618 21.3047 59.3384 21.3164C59.2563 21.2812 59.2036 21.2578 59.1802 21.2461C59.1684 21.2461 59.1509 21.252 59.1274 21.2637L58.9341 21.2285C58.8169 21.1816 58.7407 21.1582 58.7055 21.1582C58.6704 21.1699 58.6352 21.1699 58.6001 21.1582C58.5415 21.1465 58.4888 21.1289 58.4419 21.1055C58.395 21.082 58.3481 21.082 58.3013 21.1055C58.1958 21.0352 58.1196 20.9941 58.0727 20.9824C58.0376 20.959 57.9966 20.9414 57.9497 20.9297C57.8442 20.8477 57.7798 20.8008 57.7563 20.7891C57.7446 20.7773 57.727 20.7656 57.7036 20.7539C57.5747 20.707 57.5044 20.6777 57.4927 20.666C57.4809 20.6543 57.4634 20.6484 57.4399 20.6484C57.3462 20.5781 57.2934 20.5488 57.2817 20.5605C57.2817 20.5605 57.27 20.5547 57.2466 20.543C57.1294 20.4375 57.0708 20.3848 57.0708 20.3848C57.0825 20.373 57.0766 20.3555 57.0532 20.332C56.9477 20.2852 56.895 20.2617 56.895 20.2617C56.895 20.25 56.8891 20.2441 56.8774 20.2441L56.6841 20.0859L56.5083 19.9805C56.4145 19.875 56.3677 19.8164 56.3677 19.8047L56.2095 19.6816C56.0805 19.5762 55.9927 19.5117 55.9458 19.4883C55.9106 19.4531 55.8638 19.418 55.8052 19.3828C55.7583 19.3008 55.729 19.2539 55.7173 19.2422C55.7173 19.2305 55.7055 19.2188 55.6821 19.207C55.6001 19.0781 55.5473 19.002 55.5239 18.9785C55.5005 18.9434 55.4712 18.9141 55.436 18.8906C55.4009 18.7852 55.3364 18.6914 55.2427 18.6094C55.1606 18.4922 55.1079 18.4219 55.0845 18.3984C55.061 18.3516 55.0317 18.3105 54.9966 18.2754C54.9731 18.2285 54.9497 18.1758 54.9263 18.1172C54.8677 18.0469 54.8208 17.9941 54.7856 17.959C54.727 17.8535 54.6977 17.7949 54.6977 17.7832C54.6743 17.7598 54.645 17.6953 54.6098 17.5898C54.5278 17.4375 54.4809 17.3438 54.4692 17.3086C54.3989 17.1797 54.3638 17.1035 54.3638 17.0801C54.3638 17.0566 54.352 17.0332 54.3286 17.0098C54.2817 16.8809 54.2524 16.8047 54.2407 16.7812L54.1704 16.5352C54.1235 16.4297 54.0942 16.3359 54.0825 16.2539C54.0708 16.1719 54.0473 16.0957 54.0122 16.0254C54.0005 15.9551 53.9888 15.9082 53.977 15.8848C53.977 15.8496 53.9653 15.8086 53.9419 15.7617C53.8716 15.5391 53.8423 15.3457 53.854 15.1816C53.854 15.1348 53.854 15.0938 53.854 15.0586C53.8657 15.0234 53.8716 14.9824 53.8716 14.9355C53.8598 14.8887 53.8481 14.8418 53.8364 14.7949C53.8364 14.748 53.8305 14.6953 53.8188 14.6367C53.8305 14.5195 53.8247 14.4434 53.8013 14.4082C53.7895 14.373 53.7895 14.332 53.8013 14.2852C53.7778 14.2148 53.772 14.168 53.7837 14.1445C53.7954 14.1094 53.8013 14.0625 53.8013 14.0039C53.8013 13.9219 53.8013 13.875 53.8013 13.8633C53.813 13.8516 53.8188 13.834 53.8188 13.8105C53.8305 13.7637 53.8364 13.7168 53.8364 13.6699C53.8364 13.623 53.8423 13.5762 53.854 13.5293C53.8657 13.4238 53.8716 13.3535 53.8716 13.3184C53.8716 13.2832 53.8774 13.2363 53.8891 13.1777C53.9126 13.0254 53.9302 12.9434 53.9419 12.9316C53.9653 12.8027 53.977 12.7207 53.977 12.6855C53.977 12.6504 53.9829 12.6152 53.9946 12.5801C54.0415 12.498 54.0649 12.4512 54.0649 12.4395C54.0649 12.416 54.0766 12.3984 54.1001 12.3867C54.1118 12.2461 54.1294 12.1406 54.1528 12.0703C54.2348 11.9414 54.2759 11.8711 54.2759 11.8594C54.2759 11.8359 54.2817 11.8125 54.2934 11.7891C54.3052 11.7656 54.3227 11.7422 54.3462 11.7188C54.3696 11.6836 54.393 11.6484 54.4165 11.6133C54.4516 11.5547 54.4809 11.4961 54.5044 11.4375C54.5395 11.3672 54.5805 11.3027 54.6274 11.2441C54.604 11.209 54.6098 11.1738 54.645 11.1387C54.6802 11.1035 54.686 11.0684 54.6626 11.0332C54.7095 10.9863 54.7446 10.9336 54.768 10.875C54.8032 10.8164 54.8442 10.7695 54.8911 10.7344C54.8911 10.6758 54.9028 10.6289 54.9263 10.5938C54.9614 10.5586 54.9907 10.5234 55.0141 10.4883C55.0376 10.4414 55.0669 10.4062 55.102 10.3828C55.1489 10.3477 55.1899 10.3125 55.2251 10.2773C55.3071 10.1836 55.3481 10.1309 55.3481 10.1191C55.3481 10.1074 55.354 10.0957 55.3657 10.084C55.4243 10.002 55.4595 9.95508 55.4712 9.94336C55.4946 9.93164 55.5122 9.9082 55.5239 9.87305C55.5708 9.86133 55.6059 9.83789 55.6294 9.80273C55.6645 9.76758 55.6997 9.73828 55.7348 9.71484C55.7934 9.66797 55.8286 9.64453 55.8403 9.64453C55.8638 9.63281 55.8872 9.61523 55.9106 9.5918C55.9809 9.50977 56.0337 9.45117 56.0688 9.41602C56.0923 9.39258 56.1157 9.36914 56.1391 9.3457C56.1626 9.32227 56.186 9.29883 56.2095 9.27539C56.3032 9.18164 56.3559 9.13477 56.3677 9.13477C56.4497 9.08789 56.4966 9.05859 56.5083 9.04688C56.5317 9.02344 56.5669 9.00586 56.6138 8.99414L56.7544 8.85352C56.8364 8.77148 56.8833 8.72461 56.895 8.71289C56.9067 8.70117 56.9184 8.68359 56.9302 8.66016L57.1235 8.53711C57.2055 8.45508 57.27 8.41406 57.3169 8.41406C57.4341 8.34375 57.5044 8.30859 57.5278 8.30859C57.563 8.30859 57.5981 8.29688 57.6333 8.27344C57.7388 8.25 57.8149 8.23242 57.8618 8.2207C57.9321 8.17383 57.979 8.15039 58.0024 8.15039C58.0259 8.13867 58.0493 8.12695 58.0727 8.11523C58.2251 8.12695 58.3364 8.11523 58.4067 8.08008C58.477 8.04492 58.5415 8.01562 58.6001 7.99219C58.6821 7.94531 58.7466 7.91016 58.7934 7.88672C58.8403 7.85156 58.893 7.82812 58.9516 7.81641C59.0923 7.80469 59.1802 7.79297 59.2153 7.78125C59.2505 7.76953 59.2973 7.76367 59.3559 7.76367L59.6196 7.71094C59.7368 7.6875 59.8071 7.68164 59.8305 7.69336C59.8657 7.70508 59.895 7.71094 59.9184 7.71094L60.0766 7.67578ZM63.188 11.877C63.188 11.8184 63.1704 11.7715 63.1352 11.7363C63.1118 11.6895 63.0884 11.6367 63.0649 11.5781C62.9595 11.4727 62.8891 11.4082 62.854 11.3848C62.8305 11.3613 62.8013 11.3379 62.7661 11.3145C62.6841 11.2207 62.6138 11.1562 62.5552 11.1211C62.4848 11.0391 62.438 10.998 62.4145 10.998C62.4028 10.998 62.397 10.9863 62.397 10.9629L62.2212 10.8574C62.1157 10.7754 61.9985 10.7051 61.8696 10.6465L61.6763 10.5938C61.5356 10.5352 61.4536 10.4941 61.4302 10.4707C61.3481 10.4238 61.2895 10.4004 61.2544 10.4004C61.2192 10.4004 61.1899 10.3945 61.1665 10.3828C61.0376 10.3359 60.9614 10.3066 60.938 10.2949C60.8208 10.2832 60.7505 10.2715 60.727 10.2598C60.7036 10.2363 60.6802 10.2363 60.6567 10.2598H60.393C60.2876 10.2715 60.2055 10.2832 60.147 10.2949C60.0884 10.2949 60.0356 10.3066 59.9888 10.3301C59.8364 10.3652 59.7368 10.3828 59.6899 10.3828C59.643 10.3828 59.5903 10.3945 59.5317 10.418C59.438 10.4531 59.3794 10.4766 59.3559 10.4883C59.3325 10.5 59.3149 10.5 59.3032 10.4883C59.1977 10.5117 59.1391 10.5293 59.1274 10.541C59.1157 10.541 59.104 10.5469 59.0923 10.5586L58.9165 10.6465C58.8696 10.6699 58.8286 10.6934 58.7934 10.7168C58.77 10.7285 58.7466 10.7461 58.7231 10.7695C58.5825 10.875 58.5005 10.9336 58.477 10.9453C58.3716 11.0391 58.3188 11.0801 58.3188 11.0684C58.2016 11.2324 58.1138 11.3438 58.0552 11.4023C58.0083 11.4492 57.9673 11.502 57.9321 11.5605C57.8735 11.5723 57.8325 11.6016 57.8091 11.6484C57.7856 11.6953 57.7505 11.7305 57.7036 11.7539C57.6802 11.8242 57.6509 11.8828 57.6157 11.9297C57.5805 11.9766 57.5513 12.0352 57.5278 12.1055C57.4692 12.1992 57.4165 12.2812 57.3696 12.3516C57.3345 12.4102 57.3052 12.4688 57.2817 12.5273C57.2583 12.6094 57.2466 12.6738 57.2466 12.7207C57.188 12.8145 57.1587 12.873 57.1587 12.8965C57.1704 12.9082 57.1763 12.9199 57.1763 12.9316C57.1763 13.0137 57.1704 13.0664 57.1587 13.0898C57.1587 13.1133 57.1587 13.1367 57.1587 13.1602C57.1352 13.2891 57.1177 13.3594 57.1059 13.3711C57.1059 13.3711 57.1059 13.377 57.1059 13.3887C57.0708 13.5176 57.0532 13.5879 57.0532 13.5996C57.0649 13.6113 57.0649 13.6289 57.0532 13.6523C57.0063 13.793 56.9829 13.9043 56.9829 13.9863C56.9946 14.0566 57.0005 14.1211 57.0005 14.1797C56.9888 14.2617 56.9829 14.3262 56.9829 14.373C56.9946 14.4082 57.0005 14.4434 57.0005 14.4785C56.977 14.6309 56.9653 14.7305 56.9653 14.7773C56.977 14.8125 56.9829 14.8535 56.9829 14.9004C56.9829 14.9355 56.977 14.9707 56.9653 15.0059C56.9653 15.041 56.9712 15.0762 56.9829 15.1113C56.9946 15.1348 57.0063 15.1641 57.018 15.1992C57.0298 15.2344 57.0356 15.2695 57.0356 15.3047C57.0473 15.4336 57.0532 15.5039 57.0532 15.5156C57.0649 15.5273 57.0708 15.5449 57.0708 15.5684C57.0942 15.6621 57.1001 15.7441 57.0884 15.8145C57.0884 15.873 57.1118 15.9316 57.1587 15.9902C57.1587 16.0254 57.1587 16.0723 57.1587 16.1309C57.1704 16.1895 57.1821 16.2305 57.1938 16.2539C57.2407 16.3242 57.27 16.3828 57.2817 16.4297L57.3872 16.623C57.3989 16.6816 57.4165 16.7285 57.4399 16.7637C57.4634 16.7988 57.4809 16.8398 57.4927 16.8867C57.5513 16.9453 57.604 17.0098 57.6509 17.0801C57.6977 17.1387 57.7329 17.2148 57.7563 17.3086C57.7798 17.332 57.8091 17.3555 57.8442 17.3789C57.8794 17.4023 57.9087 17.4375 57.9321 17.4844C58.061 17.6016 58.1372 17.6777 58.1606 17.7129C58.2192 17.7363 58.272 17.7715 58.3188 17.8184C58.3774 17.8535 58.436 17.8945 58.4946 17.9414C58.5298 17.9648 58.5649 17.9941 58.6001 18.0293C58.6352 18.0527 58.6645 18.0703 58.688 18.082C58.77 18.1523 58.8286 18.1875 58.8638 18.1875C58.8989 18.1875 58.9282 18.1934 58.9516 18.2051C59.0805 18.252 59.1509 18.2812 59.1626 18.293C59.2915 18.3398 59.3559 18.3633 59.3559 18.3633C59.4966 18.4219 59.5903 18.457 59.6372 18.4688C59.6841 18.4805 59.7192 18.4922 59.7427 18.5039C59.8716 18.5273 59.9477 18.5332 59.9712 18.5215C60.0063 18.5098 60.0356 18.5039 60.0591 18.5039C60.1763 18.5039 60.2407 18.5039 60.2524 18.5039C60.2641 18.4922 60.2817 18.4863 60.3052 18.4863C60.4575 18.5215 60.5454 18.5391 60.5688 18.5391C60.604 18.5273 60.6391 18.5156 60.6743 18.5039C60.768 18.4688 60.8794 18.4629 61.0083 18.4863C61.0669 18.4629 61.1196 18.4453 61.1665 18.4336C61.2251 18.4102 61.2778 18.3867 61.3247 18.3633C61.3833 18.3281 61.4243 18.3164 61.4477 18.3281C61.4829 18.3281 61.5122 18.3223 61.5356 18.3105C61.6528 18.2637 61.7173 18.2344 61.729 18.2227C61.811 18.1641 61.8696 18.1406 61.9048 18.1523C61.9516 18.1523 61.9868 18.1523 62.0102 18.1523C62.0688 18.1406 62.1098 18.123 62.1333 18.0996C62.1567 18.0645 62.1919 18.041 62.2388 18.0293C62.3325 18.0059 62.397 17.9766 62.4321 17.9414C62.5727 17.8828 62.6489 17.8477 62.6606 17.8359C62.6723 17.8125 62.6899 17.8008 62.7134 17.8008C62.854 17.6602 62.936 17.5664 62.9595 17.5195C63.0415 17.4492 63.0942 17.4023 63.1177 17.3789C63.1411 17.2734 63.1704 17.2031 63.2055 17.168C63.2759 17.1445 63.3169 17.1211 63.3286 17.0977C63.352 17.0625 63.3696 17.0332 63.3813 17.0098C63.4399 16.9043 63.4751 16.8457 63.4868 16.834C63.4985 16.8223 63.5044 16.8105 63.5044 16.7988C63.5278 16.7051 63.5337 16.6523 63.522 16.6406C63.522 16.6289 63.522 16.6113 63.522 16.5879C63.5923 16.4941 63.6391 16.3945 63.6626 16.2891C63.6743 16.2305 63.686 16.166 63.6977 16.0957C63.7212 16.0137 63.7446 15.9609 63.768 15.9375C63.8149 15.8086 63.8442 15.7266 63.8559 15.6914C63.8677 15.6445 63.8794 15.5977 63.8911 15.5508C63.9028 15.4688 63.9145 15.416 63.9263 15.3926C63.938 15.3574 63.9438 15.3281 63.9438 15.3047C63.9321 15.1758 63.9321 15.1055 63.9438 15.0938C63.9555 15.0703 63.9497 15.0469 63.9263 15.0234C63.9614 14.8711 63.979 14.7773 63.979 14.7422C63.9673 14.6367 63.9614 14.5664 63.9614 14.5312C63.9731 14.4844 63.9673 14.4492 63.9438 14.4258C63.9673 14.2852 63.9614 14.1445 63.9263 14.0039L63.8735 13.793C63.8384 13.6875 63.8208 13.6172 63.8208 13.582C63.8091 13.4531 63.7856 13.3652 63.7505 13.3184C63.7036 13.2246 63.6802 13.1602 63.6802 13.125C63.6919 13.0898 63.6977 13.0605 63.6977 13.0371C63.686 13.002 63.6684 12.9668 63.645 12.9316C63.6333 12.8965 63.6216 12.8613 63.6098 12.8262C63.5981 12.6973 63.5864 12.6211 63.5747 12.5977C63.5161 12.4805 63.4868 12.4102 63.4868 12.3867C63.4282 12.2578 63.3989 12.1758 63.3989 12.1406C63.3989 12.0938 63.3872 12.041 63.3638 11.9824C63.3052 11.9824 63.2641 11.9648 63.2407 11.9297C63.229 11.8945 63.2114 11.877 63.188 11.877ZM75.2705 16.1484C75.1884 16.0195 75.165 15.9023 75.2002 15.7969C75.2822 15.6445 75.3291 15.5684 75.3408 15.5684C75.3877 15.4512 75.4228 15.375 75.4463 15.3398C75.4814 15.293 75.4931 15.2285 75.4814 15.1465C75.5166 15.123 75.54 15.0879 75.5517 15.041C75.5752 14.9941 75.5986 14.959 75.622 14.9355C75.6689 14.8535 75.6923 14.7832 75.6923 14.7246C75.7041 14.666 75.7216 14.6074 75.7451 14.5488C75.7685 14.502 75.7861 14.4668 75.7978 14.4434C75.8213 14.4199 75.8447 14.3965 75.8681 14.373C75.915 14.291 75.9619 14.2148 76.0088 14.1445C76.0322 14.1211 76.0439 14.0918 76.0439 14.0566C76.0556 14.0215 76.0732 13.9863 76.0966 13.9512C76.1201 13.9277 76.1377 13.8984 76.1494 13.8633C76.1728 13.8281 76.1904 13.793 76.2021 13.7578C76.3076 13.7344 76.3779 13.7168 76.413 13.7051C76.4599 13.6816 76.5009 13.6699 76.5361 13.6699C76.5713 13.6582 76.6357 13.6641 76.7295 13.6875C76.7646 13.6758 76.8115 13.6758 76.8701 13.6875C76.9287 13.6875 76.9697 13.6992 76.9931 13.7227C77.1338 13.7578 77.2041 13.7754 77.2041 13.7754C77.2158 13.7637 77.2275 13.7578 77.2392 13.7578C77.2978 13.7812 77.3447 13.793 77.3798 13.793C77.4267 13.7812 77.4736 13.7754 77.5205 13.7754C77.6611 13.752 77.7959 13.752 77.9248 13.7754C78.0654 13.7988 78.1884 13.7812 78.2939 13.7227C78.4111 13.7344 78.4873 13.7461 78.5224 13.7578C78.5576 13.7578 78.5927 13.7578 78.6279 13.7578C78.792 13.7461 78.8857 13.7461 78.9091 13.7578C79.0263 13.7578 79.0849 13.7637 79.0849 13.7754C79.0966 13.7754 79.1084 13.7754 79.1201 13.7754C79.1787 13.7754 79.2197 13.7871 79.2431 13.8105C79.2666 13.8223 79.29 13.8164 79.3134 13.793C79.4541 13.8281 79.5185 13.8633 79.5068 13.8984C79.5068 13.9219 79.5185 13.9395 79.542 13.9512C79.5771 13.9746 79.6123 13.998 79.6474 14.0215C79.6826 14.0332 79.7236 14.0508 79.7705 14.0742C79.7939 14.1094 79.8232 14.1445 79.8584 14.1797C79.8935 14.2031 79.9228 14.2324 79.9463 14.2676C79.958 14.3613 79.9697 14.4492 79.9814 14.5312C80.0048 14.6133 80.0166 14.7012 80.0166 14.7949C80.0166 14.8301 80.0166 14.8711 80.0166 14.918C80.0166 14.9648 80.0107 15.0176 79.999 15.0762C79.999 15.123 79.9931 15.1699 79.9814 15.2168C79.9814 15.252 79.999 15.2871 80.0341 15.3223C79.999 15.4395 79.9814 15.5098 79.9814 15.5332C79.9931 15.5449 79.999 15.5566 79.999 15.5684C79.9873 15.6504 79.9814 15.7031 79.9814 15.7266C79.9931 15.75 79.999 15.7734 79.999 15.7969V16.0078C80.0107 16.0664 80.0107 16.1367 79.999 16.2188C79.9873 16.3008 79.9873 16.3828 79.999 16.4648C80.0224 16.5352 80.0283 16.582 80.0166 16.6055C80.0166 16.6172 80.0166 16.6348 80.0166 16.6582C80.0166 16.752 80.0224 16.8457 80.0341 16.9395C80.0576 17.0332 80.0634 17.1328 80.0517 17.2383C80.04 17.2969 80.0341 17.3555 80.0341 17.4141C80.0459 17.4609 80.0517 17.5137 80.0517 17.5723C80.0517 17.6191 80.0459 17.666 80.0341 17.7129C80.0341 17.748 80.0341 17.7832 80.0341 17.8184C80.0459 17.9473 80.0517 18.0469 80.0517 18.1172C80.0517 18.1875 80.0576 18.2402 80.0693 18.2754C80.1045 18.3926 80.1162 18.457 80.1045 18.4688C80.0927 18.4688 80.0869 18.4805 80.0869 18.5039C80.1103 18.6094 80.1162 18.6855 80.1045 18.7324C80.1045 18.7793 80.1045 18.8203 80.1045 18.8555C80.1045 18.9609 80.0986 19.043 80.0869 19.1016C80.0869 19.1484 80.081 19.2012 80.0693 19.2598C80.081 19.377 80.081 19.4473 80.0693 19.4707C80.0693 19.4941 80.0693 19.5176 80.0693 19.541C80.081 19.6582 80.081 19.7227 80.0693 19.7344C80.0693 19.7461 80.0693 19.7578 80.0693 19.7695L80.0869 19.9629C80.1103 20.1035 80.122 20.1797 80.122 20.1914C80.122 20.2031 80.1279 20.2148 80.1396 20.2266C80.1865 20.4141 80.1865 20.6074 80.1396 20.8066C80.0107 20.9238 79.9404 21.0059 79.9287 21.0527C79.8466 21.0762 79.7822 21.0996 79.7353 21.123C79.665 21.1113 79.6064 21.1113 79.5595 21.123C79.5244 21.1348 79.4892 21.1465 79.4541 21.1582C79.3955 21.1348 79.3369 21.1289 79.2783 21.1406C79.2197 21.1523 79.1611 21.1641 79.1025 21.1758C79.0556 21.1758 79.0029 21.1758 78.9443 21.1758C78.8974 21.1758 78.8623 21.1875 78.8388 21.2109C78.7568 21.2227 78.6748 21.2285 78.5927 21.2285C78.5224 21.2402 78.458 21.252 78.3994 21.2637C78.3291 21.2637 78.2646 21.2637 78.206 21.2637C78.124 21.2637 78.042 21.2637 77.9599 21.2637C77.8779 21.2754 77.7959 21.2754 77.7138 21.2637C77.5849 21.252 77.5146 21.2461 77.5029 21.2461C77.4912 21.2578 77.4736 21.2637 77.4502 21.2637C77.3095 21.2402 77.2275 21.2168 77.2041 21.1934C77.1572 21.1934 77.1162 21.1934 77.081 21.1934C77.0576 21.2051 77.0341 21.2109 77.0107 21.2109C76.9521 21.1875 76.9052 21.1758 76.8701 21.1758C76.8466 21.1875 76.8232 21.1816 76.7998 21.1582C76.7646 21.1816 76.7295 21.1875 76.6943 21.1758C76.6709 21.1641 76.6357 21.1582 76.5888 21.1582C76.4365 21.1582 76.3252 21.1406 76.2548 21.1055C76.1845 21.082 76.1084 21.082 76.0263 21.1055C75.9795 21.0703 75.915 21.0527 75.833 21.0527C75.7509 21.0527 75.6806 21.0527 75.622 21.0527C75.5752 21.0293 75.5107 21.0117 75.4287 21C75.3466 21 75.2705 20.9883 75.2002 20.9648C75.165 20.9531 75.124 20.9414 75.0771 20.9297C75.042 20.918 75.0068 20.9062 74.9716 20.8945C74.8427 20.8828 74.7783 20.8711 74.7783 20.8594C74.6377 20.8125 74.5498 20.7715 74.5146 20.7363C74.3857 20.7129 74.3095 20.6953 74.2861 20.6836C74.2275 20.6484 74.1865 20.6191 74.163 20.5957C74.1513 20.5723 74.1162 20.5664 74.0576 20.5781C74.0341 20.5195 73.9931 20.4844 73.9345 20.4727C73.8877 20.4609 73.8349 20.4434 73.7763 20.4199L73.6005 20.2969C73.4951 20.2266 73.4248 20.1914 73.3896 20.1914C73.2607 20.1211 73.1845 20.0684 73.1611 20.0332C73.1377 19.9863 73.1142 19.9512 73.0908 19.9277C72.9736 19.8574 72.8974 19.8047 72.8623 19.7695C72.8271 19.7227 72.7744 19.6875 72.7041 19.6641C72.6338 19.582 72.5869 19.5293 72.5634 19.5059C72.54 19.4824 72.5107 19.4707 72.4755 19.4707C72.4638 19.4355 72.4404 19.4062 72.4052 19.3828C72.3818 19.3477 72.3584 19.3125 72.3349 19.2773C72.2529 19.1953 72.2002 19.1426 72.1767 19.1191C72.1533 19.0957 72.1298 19.0664 72.1064 19.0312C72.0244 18.9023 71.9775 18.8379 71.9658 18.8379C71.9541 18.8379 71.9423 18.8262 71.9306 18.8027C71.8603 18.6973 71.8193 18.6387 71.8076 18.627C71.8076 18.6035 71.7959 18.5801 71.7724 18.5566C71.6904 18.4512 71.6494 18.3867 71.6494 18.3633C71.6025 18.2695 71.5615 18.2051 71.5263 18.1699C71.5029 18.123 71.4795 18.0703 71.456 18.0117C71.3857 17.918 71.3447 17.8652 71.333 17.8535C71.333 17.8301 71.3271 17.8066 71.3154 17.7832C71.2568 17.666 71.2099 17.584 71.1748 17.5371C71.1513 17.4902 71.1338 17.4375 71.122 17.3789C71.04 17.25 70.9931 17.168 70.9814 17.1328C70.9814 17.0977 70.9755 17.0684 70.9638 17.0449L70.9111 16.8516L70.8232 16.6582C70.8115 16.541 70.7998 16.4355 70.788 16.3418C70.7529 16.2012 70.7236 16.1133 70.7002 16.0781C70.6884 16.043 70.6826 16.002 70.6826 15.9551C70.6591 15.8379 70.6474 15.7734 70.6474 15.7617C70.6474 15.5859 70.6357 15.4512 70.6123 15.3574C70.6005 15.252 70.6064 15.1465 70.6298 15.041C70.6181 14.9004 70.6123 14.8242 70.6123 14.8125C70.624 14.8008 70.6298 14.7832 70.6298 14.7598C70.6298 14.7363 70.624 14.707 70.6123 14.6719C70.6005 14.6367 70.5947 14.6016 70.5947 14.5664C70.583 14.4844 70.5888 14.4199 70.6123 14.373C70.5888 14.2793 70.583 14.1738 70.5947 14.0566C70.6181 13.9395 70.6474 13.8398 70.6826 13.7578C70.6591 13.7344 70.6474 13.7051 70.6474 13.6699C70.6591 13.623 70.6533 13.5762 70.6298 13.5293C70.6533 13.4941 70.6709 13.4531 70.6826 13.4062C70.6943 13.3477 70.7002 13.2949 70.7002 13.248C70.747 13.0605 70.7939 12.9258 70.8408 12.8438C70.8408 12.7734 70.8466 12.709 70.8584 12.6504C70.8818 12.5918 70.8994 12.5332 70.9111 12.4746C70.9463 12.3574 70.9697 12.2578 70.9814 12.1758C71.0283 12 71.0693 11.8828 71.1045 11.8242C71.1396 11.7539 71.1689 11.6777 71.1923 11.5957C71.2275 11.502 71.2627 11.4551 71.2978 11.4551C71.333 11.4434 71.333 11.4258 71.2978 11.4023C71.3916 11.2617 71.4384 11.1914 71.4384 11.1914C71.4619 11.1445 71.4736 11.1094 71.4736 11.0859C71.4853 11.0508 71.497 11.0215 71.5088 10.998C71.5791 10.9043 71.6084 10.8574 71.5966 10.8574C71.5966 10.8457 71.6025 10.834 71.6142 10.8223C71.6728 10.7051 71.7255 10.6465 71.7724 10.6465C71.8076 10.5645 71.8252 10.5176 71.8252 10.5059C71.8369 10.4824 71.8545 10.459 71.8779 10.4355C71.9365 10.3418 71.9716 10.2949 71.9834 10.2949C71.9951 10.2949 72.0009 10.2891 72.0009 10.2773L72.1416 10.1367C72.247 10.0078 72.3173 9.92578 72.3525 9.89062C72.3877 9.85547 72.417 9.81445 72.4404 9.76758C72.5341 9.68555 72.581 9.64453 72.581 9.64453C72.5927 9.63281 72.6045 9.62695 72.6162 9.62695C72.7334 9.52148 72.8037 9.44531 72.8271 9.39844C72.8623 9.35156 72.9033 9.31055 72.9502 9.27539C73.0908 9.19336 73.1787 9.13477 73.2138 9.09961C73.2607 9.06445 73.3076 9.0293 73.3545 8.99414L73.6181 8.85352C73.665 8.81836 73.7002 8.80078 73.7236 8.80078C73.7588 8.78906 73.7763 8.76562 73.7763 8.73047C73.8115 8.75391 73.8466 8.75977 73.8818 8.74805C73.917 8.72461 73.9463 8.70117 73.9697 8.67773C74.0752 8.61914 74.1572 8.57812 74.2158 8.55469C74.2744 8.51953 74.3271 8.49023 74.374 8.4668C74.4677 8.41992 74.5263 8.39062 74.5498 8.37891C74.5732 8.36719 74.5966 8.35547 74.6201 8.34375C74.7841 8.27344 74.8955 8.23242 74.9541 8.2207C75.0127 8.20898 75.0595 8.18555 75.0947 8.15039C75.2119 8.12695 75.3056 8.10352 75.3759 8.08008C75.4697 8.05664 75.5459 8.03906 75.6045 8.02734C75.7099 7.99219 75.7744 7.96875 75.7978 7.95703C75.833 7.93359 75.8681 7.91602 75.9033 7.9043C76.0088 7.9043 76.0673 7.9043 76.0791 7.9043C76.0908 7.89258 76.1084 7.88672 76.1318 7.88672C76.249 7.83984 76.331 7.82227 76.3779 7.83398C76.4365 7.83398 76.4951 7.82227 76.5537 7.79883C76.624 7.81055 76.665 7.81641 76.6767 7.81641C76.7002 7.80469 76.7236 7.79883 76.747 7.79883C76.8525 7.78711 76.9287 7.79297 76.9755 7.81641C77.1045 7.80469 77.1689 7.80469 77.1689 7.81641C77.1806 7.81641 77.1923 7.81641 77.2041 7.81641C77.2392 7.82812 77.2744 7.83984 77.3095 7.85156C77.3447 7.85156 77.374 7.86914 77.3974 7.9043C77.4443 7.88086 77.4795 7.875 77.5029 7.88672C77.538 7.88672 77.5791 7.88672 77.6259 7.88672C77.7666 7.875 77.8779 7.88086 77.9599 7.9043C78.1474 7.95117 78.2705 7.96875 78.3291 7.95703L78.54 8.13281C78.6338 8.22656 78.6982 8.29102 78.7334 8.32617C78.7685 8.34961 78.7978 8.38477 78.8213 8.43164L78.8564 8.625C78.9033 8.75391 78.9267 8.82422 78.9267 8.83594C78.9384 8.84766 78.9384 8.86523 78.9267 8.88867C78.9853 8.9707 79.0205 9.07617 79.0322 9.20508C79.0556 9.32227 79.0966 9.42773 79.1552 9.52148C79.1787 9.62695 79.1904 9.69727 79.1904 9.73242C79.2021 9.76758 79.2197 9.80273 79.2431 9.83789C79.29 9.89648 79.3134 9.96094 79.3134 10.0312C79.3252 10.0898 79.3603 10.1484 79.4189 10.207C79.4306 10.3594 79.4365 10.4531 79.4365 10.4883C79.4482 10.5234 79.4482 10.5586 79.4365 10.5938C79.4248 10.6289 79.4013 10.6582 79.3662 10.6816C79.331 10.7051 79.3017 10.7285 79.2783 10.752C79.1728 10.752 79.0849 10.7402 79.0146 10.7168C78.956 10.6934 78.8798 10.6816 78.7861 10.6816C78.6806 10.6348 78.6162 10.6055 78.5927 10.5938C78.5693 10.5703 78.5459 10.5586 78.5224 10.5586C78.3818 10.5586 78.2939 10.5645 78.2588 10.5762C78.2353 10.5762 78.2119 10.5762 78.1884 10.5762C78.1416 10.5762 78.1005 10.5703 78.0654 10.5586C78.0302 10.5469 77.9892 10.5469 77.9423 10.5586C77.8252 10.5469 77.7431 10.5469 77.6963 10.5586C77.6611 10.5703 77.6201 10.5762 77.5732 10.5762C77.4677 10.5645 77.3974 10.5703 77.3623 10.5938C77.3388 10.6055 77.3095 10.6113 77.2744 10.6113C77.2041 10.6113 77.1455 10.6172 77.0986 10.6289C77.0634 10.6406 77.0341 10.6465 77.0107 10.6465C76.8935 10.6582 76.8291 10.6699 76.8173 10.6816C76.8056 10.6934 76.788 10.6992 76.7646 10.6992C76.7295 10.7109 76.6884 10.7168 76.6416 10.7168C76.5947 10.7168 76.5537 10.7344 76.5185 10.7695C76.3896 10.7695 76.2666 10.8164 76.1494 10.9102C75.997 10.9688 75.874 11.0215 75.7802 11.0684C75.7451 11.0918 75.6982 11.1152 75.6396 11.1387C75.5927 11.1504 75.5459 11.168 75.499 11.1914C75.4052 11.2617 75.3466 11.3027 75.3232 11.3145C75.3115 11.3145 75.2939 11.3203 75.2705 11.332C75.1884 11.4023 75.1357 11.4375 75.1123 11.4375C75.1005 11.4258 75.0888 11.4375 75.0771 11.4727C74.9716 11.543 74.913 11.584 74.9013 11.5957C74.8896 11.5957 74.872 11.5898 74.8486 11.5781C74.8134 11.6602 74.7724 11.7246 74.7255 11.7715C74.6904 11.8066 74.6377 11.8477 74.5673 11.8945C74.4736 11.9883 74.415 12.0527 74.3916 12.0879L74.2334 12.2461C74.1982 12.3633 74.1806 12.4395 74.1806 12.4746C74.1923 12.498 74.1923 12.5215 74.1806 12.5449C74.1338 12.627 74.0986 12.6855 74.0752 12.7207C74.0634 12.7559 74.0459 12.7969 74.0224 12.8438C73.9873 12.9023 73.9521 12.9668 73.917 13.0371C73.8818 13.0957 73.8584 13.1777 73.8466 13.2832C73.788 13.3887 73.7588 13.459 73.7588 13.4941C73.7705 13.5176 73.7705 13.5469 73.7588 13.582C73.7119 13.7227 73.6826 13.8164 73.6709 13.8633C73.6591 13.8984 73.665 13.9395 73.6884 13.9863C73.665 14.0215 73.6533 14.0566 73.6533 14.0918C73.6533 14.1152 73.6474 14.1562 73.6357 14.2148C73.624 14.332 73.6181 14.3965 73.6181 14.4082C73.6298 14.4199 73.6298 14.4375 73.6181 14.4609C73.6181 14.5781 73.6181 14.6426 73.6181 14.6543C73.6181 14.7715 73.6181 14.8359 73.6181 14.8477C73.6298 14.8594 73.6357 14.877 73.6357 14.9004C73.6474 15.0059 73.6591 15.082 73.6709 15.1289C73.6826 15.1641 73.6943 15.2109 73.706 15.2695C73.7177 15.3047 73.7236 15.3457 73.7236 15.3926C73.7236 15.4395 73.7295 15.4746 73.7412 15.498C73.7529 15.5449 73.7646 15.5918 73.7763 15.6387C73.7998 15.6738 73.8173 15.7148 73.8291 15.7617C73.8642 15.9023 73.8935 16.0137 73.917 16.0957C73.9404 16.1777 73.9638 16.2656 73.9873 16.3594C74.0576 16.5352 74.1045 16.6465 74.1279 16.6934C74.163 16.7285 74.1923 16.7754 74.2158 16.834C74.2627 16.916 74.292 16.9629 74.3037 16.9746C74.3154 16.9746 74.3271 16.9805 74.3388 16.9922L74.4267 17.168C74.4502 17.1914 74.4677 17.2266 74.4795 17.2734C74.4912 17.3086 74.5088 17.3379 74.5322 17.3613L74.6552 17.5195C74.7255 17.6133 74.7724 17.6719 74.7959 17.6953C74.8193 17.7188 74.8486 17.748 74.8838 17.7832C74.9189 17.8066 74.9482 17.8418 74.9716 17.8887C75.0888 17.959 75.1474 17.9941 75.1474 17.9941C75.2295 18.041 75.2822 18.0762 75.3056 18.0996C75.3291 18.1113 75.3466 18.1172 75.3584 18.1172C75.4521 18.1641 75.5166 18.2051 75.5517 18.2402C75.5869 18.2754 75.6279 18.3105 75.6748 18.3457L75.8857 18.416C75.9912 18.4746 76.0556 18.5039 76.0791 18.5039C76.1025 18.4922 76.1259 18.498 76.1494 18.5215C76.208 18.5215 76.2548 18.5273 76.29 18.5391C76.3369 18.5508 76.4013 18.5625 76.4834 18.5742C76.5302 18.5859 76.5654 18.5918 76.5888 18.5918C76.624 18.5801 76.6533 18.5742 76.6767 18.5742C76.7822 18.5859 76.8525 18.5977 76.8877 18.6094C76.9345 18.6211 76.9814 18.6094 77.0283 18.5742C77.0517 18.5977 77.081 18.6094 77.1162 18.6094C77.163 18.6094 77.2041 18.6094 77.2392 18.6094C77.3798 18.6094 77.4736 18.5977 77.5205 18.5742C77.5673 18.4336 77.6025 18.3574 77.6259 18.3457C77.6025 18.1934 77.5908 18.1172 77.5908 18.1172C77.5908 18.082 77.5849 18.0469 77.5732 18.0117C77.5732 17.9648 77.5732 17.9297 77.5732 17.9062C77.5732 17.8477 77.5732 17.8066 77.5732 17.7832C77.5849 17.7598 77.5849 17.7246 77.5732 17.6777L77.5556 17.4668C77.5439 17.373 77.5322 17.3145 77.5205 17.291C77.5088 17.2559 77.5029 17.2266 77.5029 17.2031C77.538 17.0156 77.5556 16.8926 77.5556 16.834C77.5205 16.6934 77.5029 16.5879 77.5029 16.5176C77.4912 16.4355 77.4795 16.377 77.4677 16.3418C77.456 16.3066 77.415 16.2773 77.3447 16.2539C77.2392 16.1484 77.1689 16.1074 77.1338 16.1309C77.0986 16.1426 77.0693 16.1484 77.0459 16.1484C77.0107 16.1484 76.9755 16.1426 76.9404 16.1309C76.917 16.1191 76.8877 16.1133 76.8525 16.1133C76.8173 16.1133 76.7822 16.125 76.747 16.1484C76.7119 16.1602 76.6767 16.166 76.6416 16.166C76.6064 16.166 76.5654 16.1602 76.5185 16.1484C76.4716 16.125 76.4189 16.1074 76.3603 16.0957C76.3134 16.0957 76.2666 16.0898 76.2197 16.0781C76.1845 16.0664 76.1435 16.0605 76.0966 16.0605C75.9091 16.0957 75.7685 16.1074 75.6748 16.0957C75.5927 16.084 75.499 16.0781 75.3935 16.0781L75.2705 16.1484ZM90.4467 7.67578C90.517 7.67578 90.5698 7.68164 90.6049 7.69336C90.6401 7.69336 90.6694 7.68164 90.6928 7.6582C90.7866 7.69336 90.892 7.71094 91.0092 7.71094C91.1264 7.71094 91.2495 7.71094 91.3784 7.71094C91.4604 7.74609 91.519 7.76953 91.5541 7.78125C91.5893 7.78125 91.6186 7.78125 91.642 7.78125C91.7241 7.80469 91.7827 7.81641 91.8178 7.81641C91.853 7.81641 91.8823 7.82812 91.9057 7.85156C91.976 7.88672 92.0639 7.91602 92.1694 7.93945C92.228 7.95117 92.2983 7.96289 92.3803 7.97461C92.4623 7.98633 92.5327 7.99219 92.5913 7.99219C92.6264 8.02734 92.6674 8.05078 92.7143 8.0625C92.7612 8.0625 92.808 8.07422 92.8549 8.09766C92.8784 8.12109 92.9077 8.13867 92.9428 8.15039C92.978 8.16211 93.0073 8.17969 93.0307 8.20312C93.0893 8.20312 93.142 8.22656 93.1889 8.27344C93.2358 8.30859 93.2768 8.34375 93.312 8.37891C93.4291 8.41406 93.5112 8.44336 93.558 8.4668C93.7104 8.52539 93.7983 8.55469 93.8217 8.55469C93.8452 8.55469 93.8686 8.56055 93.892 8.57227C93.9975 8.66602 94.0502 8.71875 94.0502 8.73047C94.062 8.73047 94.0795 8.74219 94.103 8.76562C94.2319 8.84766 94.308 8.90039 94.3315 8.92383C94.3549 8.93555 94.3901 8.93555 94.437 8.92383C94.5424 9.00586 94.6069 9.04688 94.6303 9.04688C94.6538 9.04688 94.6772 9.05273 94.7006 9.06445C94.7358 9.09961 94.7651 9.12891 94.7885 9.15234C94.812 9.17578 94.8354 9.19922 94.8588 9.22266C94.9174 9.26953 94.9584 9.31055 94.9819 9.3457C95.0053 9.38086 95.0288 9.41016 95.0522 9.43359C95.1342 9.46875 95.1752 9.49805 95.1752 9.52148C95.187 9.5332 95.2045 9.5332 95.228 9.52148L95.3686 9.66211C95.4506 9.79102 95.4975 9.85547 95.5092 9.85547C95.5209 9.85547 95.5327 9.86719 95.5444 9.89062C95.603 9.96094 95.6381 10.0078 95.6498 10.0312C95.6733 10.0547 95.6967 10.0781 95.7202 10.1016C95.8022 10.2188 95.8491 10.2773 95.8608 10.2773C95.8842 10.2773 95.9018 10.2832 95.9135 10.2949C95.9955 10.377 96.0424 10.4355 96.0541 10.4707C96.0659 10.4941 96.0717 10.5234 96.0717 10.5586C96.1069 10.5938 96.142 10.623 96.1772 10.6465C96.2123 10.6582 96.2416 10.6875 96.2651 10.7344C96.2768 10.7812 96.2885 10.8164 96.3002 10.8398C96.312 10.8633 96.3237 10.8926 96.3354 10.9277C96.394 10.9863 96.4291 11.0273 96.4409 11.0508C96.4526 11.0742 96.4702 11.0918 96.4936 11.1035C96.517 11.1855 96.5463 11.2617 96.5815 11.332C96.6284 11.3906 96.6694 11.4551 96.7045 11.5254C96.7514 11.6777 96.7866 11.7773 96.81 11.8242C96.8217 11.8477 96.8276 11.877 96.8276 11.9121C96.8393 11.9473 96.851 11.9824 96.8627 12.0176C96.933 12.123 96.9682 12.1992 96.9682 12.2461C96.9682 12.293 96.9799 12.3457 97.0034 12.4043C97.0385 12.5098 97.062 12.5801 97.0737 12.6152C97.0854 12.6387 97.0913 12.6621 97.0913 12.6855C97.1264 12.8613 97.1381 12.9844 97.1264 13.0547C97.1264 13.1133 97.1323 13.1777 97.144 13.248C97.1674 13.3535 97.1791 13.418 97.1791 13.4414C97.1909 13.4531 97.2026 13.4707 97.2143 13.4941C97.226 13.6113 97.2319 13.6699 97.2319 13.6699C97.2436 13.6699 97.2495 13.6816 97.2495 13.7051C97.2612 13.752 97.267 13.8047 97.267 13.8633C97.2788 13.9219 97.2963 13.9746 97.3198 14.0215C97.3198 14.0801 97.3139 14.127 97.3022 14.1621C97.3022 14.1973 97.308 14.2324 97.3198 14.2676C97.3198 14.3379 97.3198 14.4023 97.3198 14.4609C97.3315 14.5547 97.3315 14.6074 97.3198 14.6191C97.3198 14.6309 97.3198 14.6484 97.3198 14.6719C97.308 14.7188 97.3022 14.7656 97.3022 14.8125C97.3139 14.8594 97.3198 14.9062 97.3198 14.9531C97.3198 15.0352 97.3139 15.1113 97.3022 15.1816C97.2905 15.252 97.2846 15.3281 97.2846 15.4102C97.2846 15.5273 97.2846 15.5859 97.2846 15.5859C97.2963 15.5859 97.3022 15.5918 97.3022 15.6035C97.2788 15.7793 97.2436 15.9199 97.1967 16.0254C97.2084 16.084 97.2084 16.1426 97.1967 16.2012C97.185 16.248 97.1733 16.3008 97.1616 16.3594C97.1381 16.418 97.1205 16.4707 97.1088 16.5176C97.1088 16.5527 97.0971 16.5938 97.0737 16.6406C97.0151 16.7578 96.9799 16.8398 96.9682 16.8867C96.9565 16.9219 96.9506 16.9688 96.9506 17.0273C96.892 17.0859 96.851 17.1562 96.8276 17.2383C96.8159 17.3086 96.7748 17.3672 96.7045 17.4141C96.6225 17.5312 96.5815 17.6016 96.5815 17.625C96.5815 17.6484 96.5756 17.6719 96.5639 17.6953C96.5405 17.7422 96.5053 17.7949 96.4584 17.8535C96.4233 17.9004 96.394 17.9531 96.3705 18.0117C96.312 18.0938 96.2709 18.1465 96.2475 18.1699C96.2006 18.252 96.1596 18.3105 96.1245 18.3457C96.101 18.3691 96.0776 18.4043 96.0541 18.4512C96.0307 18.4863 96.0014 18.5215 95.9663 18.5566C95.9428 18.5918 95.9252 18.6387 95.9135 18.6973C95.8315 18.7676 95.7846 18.8145 95.7729 18.8379C95.7729 18.8613 95.767 18.8848 95.7553 18.9082C95.6967 18.9902 95.6616 19.0371 95.6498 19.0488C95.6498 19.0605 95.6381 19.0723 95.6147 19.084C95.5327 19.1543 95.4741 19.207 95.4389 19.2422C95.4155 19.2773 95.392 19.3066 95.3686 19.3301C95.2514 19.4238 95.1752 19.4824 95.1401 19.5059C95.1049 19.5293 95.0756 19.5586 95.0522 19.5938C94.9584 19.6875 94.9116 19.7344 94.9116 19.7344C94.9116 19.7227 94.8998 19.7168 94.8764 19.7168C94.7709 19.8223 94.7006 19.8926 94.6655 19.9277C94.642 19.9629 94.6127 19.9922 94.5776 20.0156C94.5424 20.0391 94.5014 20.0684 94.4545 20.1035C94.4194 20.1387 94.3842 20.168 94.3491 20.1914C94.3256 20.2148 94.2963 20.2383 94.2612 20.2617C94.226 20.2852 94.1967 20.3086 94.1733 20.332C94.0678 20.4141 94.0034 20.4609 93.9799 20.4727C93.9682 20.4727 93.9565 20.4844 93.9448 20.5078C93.8627 20.5312 93.7807 20.5664 93.6987 20.6133C93.6284 20.6602 93.5522 20.6953 93.4702 20.7188C93.3413 20.7773 93.2651 20.8184 93.2416 20.8418C93.2182 20.8535 93.1948 20.8652 93.1713 20.877C93.0541 20.9121 92.9897 20.9297 92.978 20.9297C92.978 20.918 92.9663 20.918 92.9428 20.9297C92.8139 20.9766 92.726 21 92.6791 21C92.644 20.9883 92.5971 20.9941 92.5385 21.0176C92.4096 21.0527 92.3452 21.0703 92.3452 21.0703C92.1577 21.1055 92.0229 21.1348 91.9409 21.1582C91.8588 21.1816 91.7768 21.1992 91.6948 21.2109C91.6479 21.2227 91.5659 21.2285 91.4487 21.2285C91.3901 21.252 91.3432 21.2637 91.308 21.2637C91.2846 21.2754 91.2612 21.2871 91.2377 21.2988C91.1205 21.3105 91.0268 21.3105 90.9565 21.2988C90.8862 21.2871 90.7924 21.2988 90.6752 21.334C90.6284 21.3105 90.5756 21.3047 90.517 21.3164C90.4702 21.3281 90.435 21.3223 90.4116 21.2988C90.2944 21.2988 90.2123 21.3047 90.1655 21.3164C90.1186 21.3281 90.0776 21.334 90.0424 21.334C89.9252 21.3223 89.8432 21.3105 89.7963 21.2988C89.7612 21.2988 89.7319 21.3047 89.7084 21.3164C89.6264 21.2812 89.5737 21.2578 89.5502 21.2461C89.5385 21.2461 89.5209 21.252 89.4975 21.2637L89.3041 21.2285C89.187 21.1816 89.1108 21.1582 89.0756 21.1582C89.0405 21.1699 89.0053 21.1699 88.9702 21.1582C88.9116 21.1465 88.8588 21.1289 88.812 21.1055C88.7651 21.082 88.7182 21.082 88.6713 21.1055C88.5659 21.0352 88.4897 20.9941 88.4428 20.9824C88.4077 20.959 88.3666 20.9414 88.3198 20.9297C88.2143 20.8477 88.1498 20.8008 88.1264 20.7891C88.1147 20.7773 88.0971 20.7656 88.0737 20.7539C87.9448 20.707 87.8745 20.6777 87.8627 20.666C87.851 20.6543 87.8334 20.6484 87.81 20.6484C87.7163 20.5781 87.6635 20.5488 87.6518 20.5605C87.6518 20.5605 87.6401 20.5547 87.6166 20.543C87.4995 20.4375 87.4409 20.3848 87.4409 20.3848C87.4526 20.373 87.4467 20.3555 87.4233 20.332C87.3178 20.2852 87.2651 20.2617 87.2651 20.2617C87.2651 20.25 87.2592 20.2441 87.2475 20.2441L87.0541 20.0859L86.8784 19.9805C86.7846 19.875 86.7377 19.8164 86.7377 19.8047L86.5795 19.6816C86.4506 19.5762 86.3627 19.5117 86.3159 19.4883C86.2807 19.4531 86.2338 19.418 86.1752 19.3828C86.1284 19.3008 86.0991 19.2539 86.0873 19.2422C86.0873 19.2305 86.0756 19.2188 86.0522 19.207C85.9702 19.0781 85.9174 19.002 85.894 18.9785C85.8705 18.9434 85.8413 18.9141 85.8061 18.8906C85.7709 18.7852 85.7065 18.6914 85.6127 18.6094C85.5307 18.4922 85.478 18.4219 85.4545 18.3984C85.4311 18.3516 85.4018 18.3105 85.3666 18.2754C85.3432 18.2285 85.3198 18.1758 85.2963 18.1172C85.2377 18.0469 85.1909 17.9941 85.1557 17.959C85.0971 17.8535 85.0678 17.7949 85.0678 17.7832C85.0444 17.7598 85.0151 17.6953 84.9799 17.5898C84.8979 17.4375 84.851 17.3438 84.8393 17.3086C84.769 17.1797 84.7338 17.1035 84.7338 17.0801C84.7338 17.0566 84.7221 17.0332 84.6987 17.0098C84.6518 16.8809 84.6225 16.8047 84.6108 16.7812L84.5405 16.5352C84.4936 16.4297 84.4643 16.3359 84.4526 16.2539C84.4409 16.1719 84.4174 16.0957 84.3823 16.0254C84.3705 15.9551 84.3588 15.9082 84.3471 15.8848C84.3471 15.8496 84.3354 15.8086 84.312 15.7617C84.2416 15.5391 84.2123 15.3457 84.2241 15.1816C84.2241 15.1348 84.2241 15.0938 84.2241 15.0586C84.2358 15.0234 84.2416 14.9824 84.2416 14.9355C84.2299 14.8887 84.2182 14.8418 84.2065 14.7949C84.2065 14.748 84.2006 14.6953 84.1889 14.6367C84.2006 14.5195 84.1948 14.4434 84.1713 14.4082C84.1596 14.373 84.1596 14.332 84.1713 14.2852C84.1479 14.2148 84.142 14.168 84.1538 14.1445C84.1655 14.1094 84.1713 14.0625 84.1713 14.0039C84.1713 13.9219 84.1713 13.875 84.1713 13.8633C84.183 13.8516 84.1889 13.834 84.1889 13.8105C84.2006 13.7637 84.2065 13.7168 84.2065 13.6699C84.2065 13.623 84.2123 13.5762 84.2241 13.5293C84.2358 13.4238 84.2416 13.3535 84.2416 13.3184C84.2416 13.2832 84.2475 13.2363 84.2592 13.1777C84.2827 13.0254 84.3002 12.9434 84.312 12.9316C84.3354 12.8027 84.3471 12.7207 84.3471 12.6855C84.3471 12.6504 84.353 12.6152 84.3647 12.5801C84.4116 12.498 84.435 12.4512 84.435 12.4395C84.435 12.416 84.4467 12.3984 84.4702 12.3867C84.4819 12.2461 84.4995 12.1406 84.5229 12.0703C84.6049 11.9414 84.6459 11.8711 84.6459 11.8594C84.6459 11.8359 84.6518 11.8125 84.6635 11.7891C84.6752 11.7656 84.6928 11.7422 84.7163 11.7188C84.7397 11.6836 84.7631 11.6484 84.7866 11.6133C84.8217 11.5547 84.851 11.4961 84.8745 11.4375C84.9096 11.3672 84.9506 11.3027 84.9975 11.2441C84.9741 11.209 84.9799 11.1738 85.0151 11.1387C85.0502 11.1035 85.0561 11.0684 85.0327 11.0332C85.0795 10.9863 85.1147 10.9336 85.1381 10.875C85.1733 10.8164 85.2143 10.7695 85.2612 10.7344C85.2612 10.6758 85.2729 10.6289 85.2963 10.5938C85.3315 10.5586 85.3608 10.5234 85.3842 10.4883C85.4077 10.4414 85.437 10.4062 85.4721 10.3828C85.519 10.3477 85.56 10.3125 85.5952 10.2773C85.6772 10.1836 85.7182 10.1309 85.7182 10.1191C85.7182 10.1074 85.7241 10.0957 85.7358 10.084C85.7944 10.002 85.8295 9.95508 85.8413 9.94336C85.8647 9.93164 85.8823 9.9082 85.894 9.87305C85.9409 9.86133 85.976 9.83789 85.9995 9.80273C86.0346 9.76758 86.0698 9.73828 86.1049 9.71484C86.1635 9.66797 86.1987 9.64453 86.2104 9.64453C86.2338 9.63281 86.2573 9.61523 86.2807 9.5918C86.351 9.50977 86.4038 9.45117 86.4389 9.41602C86.4623 9.39258 86.4858 9.36914 86.5092 9.3457C86.5327 9.32227 86.5561 9.29883 86.5795 9.27539C86.6733 9.18164 86.726 9.13477 86.7377 9.13477C86.8198 9.08789 86.8666 9.05859 86.8784 9.04688C86.9018 9.02344 86.937 9.00586 86.9838 8.99414L87.1245 8.85352C87.2065 8.77148 87.2534 8.72461 87.2651 8.71289C87.2768 8.70117 87.2885 8.68359 87.3002 8.66016L87.4936 8.53711C87.5756 8.45508 87.6401 8.41406 87.687 8.41406C87.8041 8.34375 87.8745 8.30859 87.8979 8.30859C87.933 8.30859 87.9682 8.29688 88.0034 8.27344C88.1088 8.25 88.185 8.23242 88.2319 8.2207C88.3022 8.17383 88.3491 8.15039 88.3725 8.15039C88.3959 8.13867 88.4194 8.12695 88.4428 8.11523C88.5952 8.12695 88.7065 8.11523 88.7768 8.08008C88.8471 8.04492 88.9116 8.01562 88.9702 7.99219C89.0522 7.94531 89.1166 7.91016 89.1635 7.88672C89.2104 7.85156 89.2631 7.82812 89.3217 7.81641C89.4623 7.80469 89.5502 7.79297 89.5854 7.78125C89.6205 7.76953 89.6674 7.76367 89.726 7.76367L89.9897 7.71094C90.1069 7.6875 90.1772 7.68164 90.2006 7.69336C90.2358 7.70508 90.2651 7.71094 90.2885 7.71094L90.4467 7.67578ZM93.558 11.877C93.558 11.8184 93.5405 11.7715 93.5053 11.7363C93.4819 11.6895 93.4584 11.6367 93.435 11.5781C93.3295 11.4727 93.2592 11.4082 93.2241 11.3848C93.2006 11.3613 93.1713 11.3379 93.1362 11.3145C93.0541 11.2207 92.9838 11.1562 92.9252 11.1211C92.8549 11.0391 92.808 10.998 92.7846 10.998C92.7729 10.998 92.767 10.9863 92.767 10.9629L92.5913 10.8574C92.4858 10.7754 92.3686 10.7051 92.2397 10.6465L92.0463 10.5938C91.9057 10.5352 91.8237 10.4941 91.8002 10.4707C91.7182 10.4238 91.6596 10.4004 91.6245 10.4004C91.5893 10.4004 91.56 10.3945 91.5366 10.3828C91.4077 10.3359 91.3315 10.3066 91.308 10.2949C91.1909 10.2832 91.1205 10.2715 91.0971 10.2598C91.0737 10.2363 91.0502 10.2363 91.0268 10.2598H90.7631C90.6577 10.2715 90.5756 10.2832 90.517 10.2949C90.4584 10.2949 90.4057 10.3066 90.3588 10.3301C90.2065 10.3652 90.1069 10.3828 90.06 10.3828C90.0131 10.3828 89.9604 10.3945 89.9018 10.418C89.808 10.4531 89.7495 10.4766 89.726 10.4883C89.7026 10.5 89.685 10.5 89.6733 10.4883C89.5678 10.5117 89.5092 10.5293 89.4975 10.541C89.4858 10.541 89.4741 10.5469 89.4623 10.5586L89.2866 10.6465C89.2397 10.6699 89.1987 10.6934 89.1635 10.7168C89.1401 10.7285 89.1166 10.7461 89.0932 10.7695C88.9526 10.875 88.8705 10.9336 88.8471 10.9453C88.7416 11.0391 88.6889 11.0801 88.6889 11.0684C88.5717 11.2324 88.4838 11.3438 88.4252 11.4023C88.3784 11.4492 88.3373 11.502 88.3022 11.5605C88.2436 11.5723 88.2026 11.6016 88.1791 11.6484C88.1557 11.6953 88.1205 11.7305 88.0737 11.7539C88.0502 11.8242 88.0209 11.8828 87.9858 11.9297C87.9506 11.9766 87.9213 12.0352 87.8979 12.1055C87.8393 12.1992 87.7866 12.2812 87.7397 12.3516C87.7045 12.4102 87.6752 12.4688 87.6518 12.5273C87.6284 12.6094 87.6166 12.6738 87.6166 12.7207C87.558 12.8145 87.5288 12.873 87.5288 12.8965C87.5405 12.9082 87.5463 12.9199 87.5463 12.9316C87.5463 13.0137 87.5405 13.0664 87.5288 13.0898C87.5288 13.1133 87.5288 13.1367 87.5288 13.1602C87.5053 13.2891 87.4877 13.3594 87.476 13.3711C87.476 13.3711 87.476 13.377 87.476 13.3887C87.4409 13.5176 87.4233 13.5879 87.4233 13.5996C87.435 13.6113 87.435 13.6289 87.4233 13.6523C87.3764 13.793 87.353 13.9043 87.353 13.9863C87.3647 14.0566 87.3705 14.1211 87.3705 14.1797C87.3588 14.2617 87.353 14.3262 87.353 14.373C87.3647 14.4082 87.3705 14.4434 87.3705 14.4785C87.3471 14.6309 87.3354 14.7305 87.3354 14.7773C87.3471 14.8125 87.353 14.8535 87.353 14.9004C87.353 14.9355 87.3471 14.9707 87.3354 15.0059C87.3354 15.041 87.3413 15.0762 87.353 15.1113C87.3647 15.1348 87.3764 15.1641 87.3881 15.1992C87.3998 15.2344 87.4057 15.2695 87.4057 15.3047C87.4174 15.4336 87.4233 15.5039 87.4233 15.5156C87.435 15.5273 87.4409 15.5449 87.4409 15.5684C87.4643 15.6621 87.4702 15.7441 87.4584 15.8145C87.4584 15.873 87.4819 15.9316 87.5288 15.9902C87.5288 16.0254 87.5288 16.0723 87.5288 16.1309C87.5405 16.1895 87.5522 16.2305 87.5639 16.2539C87.6108 16.3242 87.6401 16.3828 87.6518 16.4297L87.7573 16.623C87.769 16.6816 87.7866 16.7285 87.81 16.7637C87.8334 16.7988 87.851 16.8398 87.8627 16.8867C87.9213 16.9453 87.9741 17.0098 88.0209 17.0801C88.0678 17.1387 88.103 17.2148 88.1264 17.3086C88.1498 17.332 88.1791 17.3555 88.2143 17.3789C88.2495 17.4023 88.2788 17.4375 88.3022 17.4844C88.4311 17.6016 88.5073 17.6777 88.5307 17.7129C88.5893 17.7363 88.642 17.7715 88.6889 17.8184C88.7475 17.8535 88.8061 17.8945 88.8647 17.9414C88.8998 17.9648 88.935 17.9941 88.9702 18.0293C89.0053 18.0527 89.0346 18.0703 89.058 18.082C89.1401 18.1523 89.1987 18.1875 89.2338 18.1875C89.269 18.1875 89.2983 18.1934 89.3217 18.2051C89.4506 18.252 89.5209 18.2812 89.5327 18.293C89.6616 18.3398 89.726 18.3633 89.726 18.3633C89.8666 18.4219 89.9604 18.457 90.0073 18.4688C90.0541 18.4805 90.0893 18.4922 90.1127 18.5039C90.2416 18.5273 90.3178 18.5332 90.3413 18.5215C90.3764 18.5098 90.4057 18.5039 90.4291 18.5039C90.5463 18.5039 90.6108 18.5039 90.6225 18.5039C90.6342 18.4922 90.6518 18.4863 90.6752 18.4863C90.8276 18.5215 90.9155 18.5391 90.9389 18.5391C90.9741 18.5273 91.0092 18.5156 91.0444 18.5039C91.1381 18.4688 91.2495 18.4629 91.3784 18.4863C91.437 18.4629 91.4897 18.4453 91.5366 18.4336C91.5952 18.4102 91.6479 18.3867 91.6948 18.3633C91.7534 18.3281 91.7944 18.3164 91.8178 18.3281C91.853 18.3281 91.8823 18.3223 91.9057 18.3105C92.0229 18.2637 92.0873 18.2344 92.0991 18.2227C92.1811 18.1641 92.2397 18.1406 92.2748 18.1523C92.3217 18.1523 92.3569 18.1523 92.3803 18.1523C92.4389 18.1406 92.4799 18.123 92.5034 18.0996C92.5268 18.0645 92.562 18.041 92.6088 18.0293C92.7026 18.0059 92.767 17.9766 92.8022 17.9414C92.9428 17.8828 93.019 17.8477 93.0307 17.8359C93.0424 17.8125 93.06 17.8008 93.0834 17.8008C93.2241 17.6602 93.3061 17.5664 93.3295 17.5195C93.4116 17.4492 93.4643 17.4023 93.4877 17.3789C93.5112 17.2734 93.5405 17.2031 93.5756 17.168C93.6459 17.1445 93.687 17.1211 93.6987 17.0977C93.7221 17.0625 93.7397 17.0332 93.7514 17.0098C93.81 16.9043 93.8452 16.8457 93.8569 16.834C93.8686 16.8223 93.8745 16.8105 93.8745 16.7988C93.8979 16.7051 93.9038 16.6523 93.892 16.6406C93.892 16.6289 93.892 16.6113 93.892 16.5879C93.9623 16.4941 94.0092 16.3945 94.0327 16.2891C94.0444 16.2305 94.0561 16.166 94.0678 16.0957C94.0913 16.0137 94.1147 15.9609 94.1381 15.9375C94.185 15.8086 94.2143 15.7266 94.226 15.6914C94.2377 15.6445 94.2495 15.5977 94.2612 15.5508C94.2729 15.4688 94.2846 15.416 94.2963 15.3926C94.308 15.3574 94.3139 15.3281 94.3139 15.3047C94.3022 15.1758 94.3022 15.1055 94.3139 15.0938C94.3256 15.0703 94.3198 15.0469 94.2963 15.0234C94.3315 14.8711 94.3491 14.7773 94.3491 14.7422C94.3373 14.6367 94.3315 14.5664 94.3315 14.5312C94.3432 14.4844 94.3373 14.4492 94.3139 14.4258C94.3373 14.2852 94.3315 14.1445 94.2963 14.0039L94.2436 13.793C94.2084 13.6875 94.1909 13.6172 94.1909 13.582C94.1791 13.4531 94.1557 13.3652 94.1205 13.3184C94.0737 13.2246 94.0502 13.1602 94.0502 13.125C94.062 13.0898 94.0678 13.0605 94.0678 13.0371C94.0561 13.002 94.0385 12.9668 94.0151 12.9316C94.0034 12.8965 93.9916 12.8613 93.9799 12.8262C93.9682 12.6973 93.9565 12.6211 93.9448 12.5977C93.8862 12.4805 93.8569 12.4102 93.8569 12.3867C93.7983 12.2578 93.769 12.1758 93.769 12.1406C93.769 12.0938 93.7573 12.041 93.7338 11.9824C93.6752 11.9824 93.6342 11.9648 93.6108 11.9297C93.5991 11.8945 93.5815 11.877 93.558 11.877Z" fill="#333333"/>
<path d="M27.9706 13.6711C27.7954 12.7417 26.8889 12.1281 25.9451 12.3006C25.8231 12.3229 25.7065 12.3576 25.5962 12.4026C24.7655 12.1238 23.6499 12.0501 22.1671 12.139C20.4627 12.2397 19.4343 10.9813 18.3406 9.64799C17.1683 8.21759 15.839 6.59733 13.6566 7.39196C11.7043 8.10314 11.9355 10.3801 12.1391 12.3893C12.2898 13.8731 12.4455 15.4077 11.7838 16.0348C11.4018 16.3975 10.6639 16.5562 9.61647 16.3646C3.1912 15.1891 7.05676 7 7.05676 7C6.92951 7.20976 3.9572 12.1753 5.51187 15.3687C6.16756 16.715 7.48083 17.5318 9.41493 17.7957C10.9598 18.0069 12.0678 17.7712 12.8012 17.0759C13.9761 15.9619 13.7843 14.0726 13.599 12.2454C13.4044 10.3278 13.3388 9.04858 14.1654 8.74772C15.2473 8.35347 15.9202 8.99614 17.1993 10.556C18.3583 11.9697 19.806 13.7324 22.2564 13.5814C23.2741 13.5197 24.0163 13.5391 24.5627 13.6278C24.5165 13.8415 24.5111 14.0675 24.5541 14.2957C24.7099 15.1227 25.445 15.6991 26.2699 15.6947C26.3748 16.7668 26.1025 17.7437 25.4714 18.5418C24.6148 19.6243 23.162 20.3046 21.4854 20.4076C20.1301 20.4899 18.9269 20.2284 17.6518 19.9508C14.2598 19.2122 10.7557 18.4487 4.2715 23.7148C3.95261 23.9737 3.9068 24.438 4.17576 24.7471C4.43442 25.0444 4.88879 25.0863 5.19528 24.8371C11.131 20.0108 14.1475 20.6676 17.335 21.3621C18.6532 21.6491 20.0152 21.9469 21.5771 21.85C23.6728 21.7211 25.5142 20.839 26.6286 19.43C27.6069 18.1936 27.9601 16.6651 27.6524 15.0099C27.9333 14.6404 28.0627 14.1608 27.9706 13.6711" fill="white"/>
</svg>
